<svg width="47.777344" height="51.000000" viewBox="0 0 47.7773 51" fill="none" xmlns="http://www.w3.org/2000/svg" xmlns:xlink="http://www.w3.org/1999/xlink">
	<desc>
			Created with Pixso.
	</desc>
	<defs/>
	<path id="Vector" d="M13.45 17.3C13.21 17.3 12.98 17.39 12.81 17.57C12.64 17.74 12.55 17.97 12.55 18.21L12.55 20.03L10.76 20.03C10.52 20.03 10.29 20.13 10.12 20.3C9.95 20.47 9.86 20.7 9.86 20.94C9.86 21.18 9.95 21.41 10.12 21.59C10.29 21.76 10.52 21.85 10.76 21.85L13.45 21.85C13.68 21.85 13.91 21.76 14.08 21.59C14.25 21.41 14.34 21.18 14.34 20.94L14.34 18.21C14.34 17.97 14.25 17.74 14.08 17.57C13.91 17.39 13.68 17.3 13.45 17.3Z" fill="#FFFFFF" fill-opacity="1.000000" fill-rule="nonzero"/>
	<path id="Vector" d="M13.45 23.67L9.86 23.67C9.62 23.67 9.39 23.77 9.23 23.94C9.06 24.11 8.96 24.34 8.96 24.58L8.96 28.23C8.96 28.47 9.06 28.7 9.23 28.87C9.39 29.04 9.62 29.14 9.86 29.14L13.45 29.14C13.68 29.14 13.91 29.04 14.08 28.87C14.25 28.7 14.34 28.47 14.34 28.23L14.34 24.58C14.34 24.34 14.25 24.11 14.08 23.94C13.91 23.77 13.68 23.67 13.45 23.67ZM12.55 27.32L10.76 27.32L10.76 25.5L12.55 25.5L12.55 27.32Z" fill="#FFFFFF" fill-opacity="1.000000" fill-rule="nonzero"/>
	<path id="Vector" d="M13.45 30.96L9.86 30.96C9.62 30.96 9.39 31.06 9.23 31.23C9.06 31.4 8.96 31.63 8.96 31.87L8.96 35.51C8.96 35.75 9.06 35.99 9.23 36.16C9.39 36.33 9.62 36.42 9.86 36.42L13.45 36.42C13.68 36.42 13.91 36.33 14.08 36.16C14.25 35.99 14.34 35.75 14.34 35.51L14.34 31.87C14.34 31.63 14.25 31.4 14.08 31.23C13.91 31.06 13.68 30.96 13.45 30.96ZM12.55 34.6L10.76 34.6L10.76 32.78L12.55 32.78L12.55 34.6Z" fill="#FFFFFF" fill-opacity="1.000000" fill-rule="nonzero"/>
	<path id="Vector" d="M13.45 38.25L9.86 38.25C9.62 38.25 9.39 38.34 9.23 38.51C9.06 38.68 8.96 38.91 8.96 39.16L8.96 42.8C8.96 43.04 9.06 43.27 9.23 43.44C9.39 43.61 9.62 43.71 9.86 43.71L13.45 43.71C13.68 43.71 13.91 43.61 14.08 43.44C14.25 43.27 14.34 43.04 14.34 42.8L14.34 39.16C14.34 38.91 14.25 38.68 14.08 38.51C13.91 38.34 13.68 38.25 13.45 38.25ZM12.55 41.89L10.76 41.89L10.76 40.07L12.55 40.07L12.55 41.89Z" fill="#FFFFFF" fill-opacity="1.000000" fill-rule="nonzero"/>
	<path id="Vector" d="M26 18.21L17.93 18.21C17.69 18.21 17.46 18.31 17.29 18.48C17.13 18.65 17.03 18.88 17.03 19.12C17.03 19.36 17.13 19.59 17.29 19.76C17.46 19.93 17.69 20.03 17.93 20.03L26 20.03C26.24 20.03 26.46 19.93 26.63 19.76C26.8 19.59 26.9 19.36 26.9 19.12C26.9 18.88 26.8 18.65 26.63 18.48C26.46 18.31 26.24 18.21 26 18.21Z" fill="#FFFFFF" fill-opacity="1.000000" fill-rule="nonzero"/>
	<path id="Vector" d="M26 25.49L17.93 25.49C17.69 25.49 17.46 25.59 17.29 25.76C17.13 25.93 17.03 26.16 17.03 26.41C17.03 26.65 17.13 26.88 17.29 27.05C17.46 27.22 17.69 27.32 17.93 27.32L26 27.32C26.24 27.32 26.46 27.22 26.63 27.05C26.8 26.88 26.9 26.65 26.9 26.41C26.9 26.16 26.8 25.93 26.63 25.76C26.46 25.59 26.24 25.49 26 25.49Z" fill="#FFFFFF" fill-opacity="1.000000" fill-rule="nonzero"/>
	<path id="Vector" d="M24.21 32.78L17.93 32.78C17.69 32.78 17.46 32.88 17.29 33.05C17.13 33.22 17.03 33.45 17.03 33.69C17.03 33.93 17.13 34.16 17.29 34.34C17.46 34.51 17.69 34.6 17.93 34.6L24.21 34.6C24.44 34.6 24.67 34.51 24.84 34.34C25.01 34.16 25.1 33.93 25.1 33.69C25.1 33.45 25.01 33.22 24.84 33.05C24.67 32.88 24.44 32.78 24.21 32.78Z" fill="#FFFFFF" fill-opacity="1.000000" fill-rule="nonzero"/>
	<path id="Vector" d="M24.21 40.07L17.93 40.07C17.69 40.07 17.46 40.16 17.29 40.33C17.13 40.5 17.03 40.74 17.03 40.98C17.03 41.22 17.13 41.45 17.29 41.62C17.46 41.79 17.69 41.89 17.93 41.89L24.21 41.89C24.44 41.89 24.67 41.79 24.84 41.62C25.01 41.45 25.1 41.22 25.1 40.98C25.1 40.74 25.01 40.5 24.84 40.33C24.67 40.16 24.44 40.07 24.21 40.07Z" fill="#FFFFFF" fill-opacity="1.000000" fill-rule="nonzero"/>
	<path id="Vector" d="M47.19 34.14C46.94 33.22 46.46 32.38 45.8 31.7C45.14 31.02 44.32 30.52 43.41 30.26C44.46 29.67 45.28 28.74 45.75 27.61L46.47 25.87C46.56 25.65 46.56 25.4 46.47 25.18C46.38 24.95 46.21 24.77 45.99 24.68L44.28 23.95C42.96 23.39 41.48 23.38 40.16 23.93C38.84 24.48 37.78 25.53 37.23 26.87L37.18 27C36.88 26.55 36.55 26.14 36.18 25.76C36.09 25.67 35.98 25.6 35.86 25.56L35.86 9.1C35.86 8.14 35.48 7.21 34.81 6.53C34.14 5.84 33.23 5.46 32.28 5.46L22.19 5.46C22.01 5.46 21.84 5.39 21.71 5.26C21.59 5.13 21.52 4.96 21.52 4.78L21.52 3.7C21.51 3.2 21.42 2.71 21.23 2.26C21.04 1.8 20.76 1.38 20.41 1.04C20.08 0.7 19.68 0.43 19.24 0.25C18.8 0.08 18.33 -0.01 17.86 0C16.92 0.02 16.03 0.41 15.37 1.09C14.72 1.77 14.35 2.68 14.34 3.64L14.34 4.78C14.34 4.96 14.27 5.13 14.15 5.26C14.02 5.39 13.85 5.46 13.67 5.46L3.58 5.46C2.63 5.46 1.72 5.84 1.05 6.53C0.37 7.21 0 8.14 0 9.1L0 47.35C0 48.32 0.37 49.24 1.05 49.93C1.72 50.61 2.63 50.99 3.58 51L32.28 51C32.55 50.99 32.83 50.96 33.1 50.9C33.84 51.05 34.61 51.02 35.33 50.8C36.06 50.58 36.72 50.18 37.25 49.64L37.34 49.55L37.42 49.64C37.85 50.07 38.35 50.41 38.9 50.65C39.46 50.88 40.05 51 40.65 51C41.43 50.99 42.21 50.78 42.89 50.39C43.57 50 44.15 49.43 44.55 48.75L45.4 47.31C46.55 45.35 47.31 43.17 47.62 40.91C47.92 38.65 47.78 36.34 47.19 34.14ZM38.88 27.57C39.07 27.13 39.33 26.73 39.67 26.4C40 26.06 40.4 25.79 40.83 25.61C41.27 25.43 41.74 25.34 42.21 25.34C42.68 25.35 43.15 25.44 43.58 25.63L44.47 26.01L44.09 26.91C43.91 27.35 43.64 27.75 43.31 28.08C42.98 28.42 42.58 28.69 42.14 28.87C41.71 29.05 41.24 29.14 40.77 29.14C40.3 29.13 39.83 29.04 39.4 28.85L38.51 28.47L38.88 27.57ZM38.7 30.53C38.89 30.61 39.08 30.68 39.28 30.74C39.01 30.89 38.76 31.06 38.52 31.25C38.51 30.98 38.49 30.7 38.45 30.42L38.7 30.53ZM36.72 31.78L36.62 31.67C36.39 31.44 36.13 31.22 35.86 31.03L35.86 28.3C36.48 29.35 36.77 30.56 36.72 31.78ZM34.07 9.1L34.07 30.21C33.64 30.1 33.2 30.05 32.76 30.05C32.59 30.05 32.43 30.06 32.28 30.07L32.28 10.01C32.28 9.77 32.18 9.54 32.01 9.37C31.85 9.2 31.62 9.1 31.38 9.1L26.9 9.1C26.9 8.46 26.73 7.83 26.41 7.28L32.28 7.28C32.75 7.28 33.21 7.47 33.54 7.81C33.88 8.16 34.07 8.62 34.07 9.1ZM28.36 45.53L5.37 45.53L5.37 10.92L9.44 10.92C9.76 11.48 10.21 11.94 10.76 12.26C11.3 12.58 11.92 12.74 12.55 12.74L23.31 12.74C23.94 12.74 24.56 12.58 25.1 12.26C25.65 11.94 26.1 11.48 26.41 10.92L30.48 10.92L30.48 30.55C29.76 30.89 29.11 31.39 28.59 32.01C28.07 32.63 27.7 33.35 27.48 34.14C26.48 37.92 26.79 41.95 28.36 45.53ZM16.14 4.78L16.14 3.64C16.14 3.16 16.32 2.7 16.65 2.36C16.98 2.02 17.43 1.83 17.89 1.82C18.13 1.81 18.36 1.86 18.58 1.95C18.79 2.04 18.99 2.17 19.16 2.34C19.33 2.51 19.48 2.73 19.57 2.96C19.67 3.19 19.72 3.45 19.72 3.7L19.72 4.78C19.72 5.44 19.98 6.08 20.45 6.55C20.91 7.02 21.54 7.28 22.19 7.28L23.31 7.28C23.79 7.28 24.24 7.47 24.58 7.81C24.91 8.16 25.1 8.62 25.1 9.1C25.1 9.59 24.91 10.05 24.58 10.39C24.24 10.73 23.79 10.92 23.31 10.92L12.55 10.92C12.07 10.92 11.62 10.73 11.28 10.39C10.94 10.05 10.76 9.59 10.76 9.1C10.76 8.62 10.94 8.16 11.28 7.81C11.62 7.47 12.07 7.28 12.55 7.28L13.67 7.28C14.32 7.28 14.95 7.02 15.41 6.55C15.87 6.08 16.13 5.44 16.14 4.78ZM1.79 47.35L1.79 9.1C1.79 8.62 1.98 8.16 2.31 7.81C2.65 7.47 3.11 7.28 3.58 7.28L9.44 7.28C9.13 7.83 8.96 8.46 8.96 9.1L4.48 9.1C4.24 9.1 4.01 9.2 3.84 9.37C3.68 9.54 3.58 9.77 3.58 10.01L3.58 46.44C3.58 46.68 3.68 46.91 3.84 47.09C4.01 47.26 4.24 47.35 4.48 47.35L29.3 47.35L30.12 48.75C30.21 48.9 30.31 49.04 30.41 49.17L3.58 49.17C3.11 49.17 2.65 48.98 2.31 48.64C1.98 48.3 1.79 47.84 1.79 47.35ZM43.86 46.37L43.01 47.81C42.77 48.23 42.42 48.57 42.01 48.81C41.59 49.05 41.12 49.17 40.65 49.17C40.28 49.17 39.92 49.1 39.59 48.96C39.25 48.82 38.95 48.61 38.69 48.35L37.97 47.62C37.89 47.53 37.79 47.47 37.68 47.42C37.57 47.38 37.46 47.35 37.34 47.35C37.22 47.35 37.1 47.38 36.99 47.42C36.89 47.47 36.79 47.53 36.7 47.62L35.98 48.35C35.73 48.61 35.42 48.82 35.09 48.96C34.75 49.1 34.39 49.17 34.03 49.17C33.55 49.17 33.08 49.05 32.67 48.81C32.25 48.57 31.91 48.23 31.66 47.81L30.81 46.37C29.78 44.62 29.11 42.68 28.83 40.66C28.56 38.64 28.69 36.59 29.21 34.62C29.38 33.99 29.71 33.41 30.17 32.95C30.62 32.49 31.19 32.16 31.81 31.99C32.43 31.83 33.09 31.83 33.71 32C34.33 32.17 34.9 32.5 35.35 32.96L36.7 34.34C36.79 34.42 36.89 34.49 36.99 34.53C37.1 34.58 37.22 34.6 37.34 34.6C37.46 34.6 37.57 34.58 37.68 34.53C37.79 34.49 37.89 34.42 37.97 34.34L39.32 32.96C39.78 32.5 40.34 32.17 40.97 32C41.59 31.83 42.24 31.83 42.86 31.99C43.48 32.16 44.05 32.49 44.51 32.95C44.96 33.41 45.29 33.99 45.46 34.62C45.99 36.59 46.11 38.64 45.84 40.66C45.57 42.68 44.89 44.62 43.86 46.37Z" fill="#FFFFFF" fill-opacity="1.000000" fill-rule="nonzero"/>
	<path id="Vector" d="M43.23 41.92C43.12 41.89 43 41.88 42.88 41.9C42.76 41.91 42.65 41.95 42.55 42.01C42.45 42.07 42.36 42.15 42.28 42.24C42.21 42.33 42.16 42.44 42.13 42.56C42.05 42.85 41.96 43.14 41.87 43.42C41.83 43.54 41.81 43.66 41.82 43.78C41.83 43.9 41.86 44.01 41.91 44.12C41.97 44.23 42.04 44.32 42.13 44.4C42.22 44.48 42.32 44.54 42.43 44.58C42.55 44.62 42.66 44.63 42.78 44.62C42.9 44.62 43.02 44.58 43.12 44.53C43.23 44.48 43.32 44.4 43.4 44.31C43.47 44.22 43.53 44.11 43.57 44C43.67 43.68 43.77 43.36 43.86 43.04C43.89 42.92 43.9 42.8 43.88 42.69C43.87 42.57 43.83 42.45 43.77 42.35C43.71 42.24 43.63 42.15 43.54 42.08C43.45 42.01 43.34 41.95 43.23 41.92Z" fill="#FFFFFF" fill-opacity="1.000000" fill-rule="nonzero"/>
	<path id="Vector" d="M43.62 36.42C43.38 36.42 43.15 36.52 42.98 36.69C42.81 36.86 42.72 37.09 42.72 37.33L42.72 38.1C42.72 38.72 42.68 39.34 42.62 39.97C42.6 40.08 42.61 40.21 42.64 40.32C42.67 40.44 42.73 40.55 42.8 40.64C42.88 40.74 42.97 40.81 43.07 40.87C43.17 40.93 43.29 40.97 43.41 40.98C43.52 41 43.64 40.99 43.76 40.95C43.87 40.92 43.98 40.86 44.07 40.79C44.16 40.71 44.24 40.62 44.29 40.51C44.35 40.4 44.39 40.29 44.4 40.17C44.47 39.48 44.51 38.79 44.51 38.1L44.51 37.33C44.51 37.09 44.42 36.86 44.25 36.69C44.08 36.52 43.85 36.42 43.62 36.42Z" fill="#FFFFFF" fill-opacity="1.000000" fill-rule="nonzero"/>
	<path id="Vector" d="M12.81 14.83L9.86 17.83L9.6 17.57C9.51 17.48 9.41 17.41 9.3 17.37C9.2 17.32 9.08 17.3 8.96 17.3C8.84 17.3 8.73 17.32 8.62 17.37C8.51 17.41 8.41 17.48 8.33 17.57C8.24 17.65 8.18 17.75 8.13 17.86C8.09 17.97 8.06 18.09 8.06 18.21C8.06 18.33 8.09 18.45 8.13 18.56C8.18 18.67 8.24 18.77 8.33 18.85L9.22 19.76C9.31 19.85 9.41 19.92 9.51 19.96C9.62 20.01 9.74 20.03 9.86 20.03C9.98 20.03 10.09 20.01 10.2 19.96C10.31 19.92 10.41 19.85 10.49 19.76L14.08 16.12C14.25 15.95 14.34 15.72 14.34 15.48C14.34 15.24 14.25 15 14.08 14.83C13.91 14.66 13.68 14.57 13.44 14.57C13.21 14.57 12.98 14.66 12.81 14.83Z" fill="#FFFFFF" fill-opacity="1.000000" fill-rule="nonzero"/>
</svg>
