<svg width="51.000000" height="50.149902" viewBox="0 0 51 50.1499" fill="none" xmlns="http://www.w3.org/2000/svg" xmlns:xlink="http://www.w3.org/1999/xlink">
	<desc>
			Created with Pixso.
	</desc>
	<defs/>
	<path id="Vector" d="M31.32 7.21L28.77 2.96C28.62 2.7 28.34 2.54 28.05 2.55L22.95 2.55L22.95 0.85C22.95 0.38 22.56 0 22.1 0L22.1 0L6.8 0C6.33 0 5.95 0.38 5.95 0.84L5.95 0.85L5.95 12.75C5.95 13.21 6.33 13.59 6.79 13.6L6.8 13.6L9.35 13.6C9.35 15 10.49 16.14 11.9 16.14C13.3 16.14 14.45 15 14.45 13.6L23.8 13.6C23.8 15 24.94 16.14 26.35 16.14C27.75 16.14 28.9 15 28.9 13.6L30.6 13.6C31.06 13.6 31.45 13.21 31.45 12.75L31.45 12.75L31.45 7.64C31.45 7.49 31.4 7.34 31.32 7.21ZM11.9 14.45C11.43 14.45 11.05 14.06 11.05 13.6C11.05 13.13 11.43 12.75 11.9 12.75C12.36 12.75 12.75 13.13 12.75 13.6C12.75 14.06 12.36 14.44 11.9 14.45ZM21.25 11.89L13.78 11.89C12.86 10.85 11.27 10.76 10.23 11.68C10.15 11.75 10.08 11.82 10.01 11.89L7.65 11.89L7.65 1.69L21.25 1.69L21.25 11.89ZM26.35 4.25L27.56 4.25L28.58 5.94L26.35 5.94L26.35 4.25ZM26.35 14.45C25.88 14.45 25.5 14.06 25.5 13.6C25.5 13.13 25.88 12.75 26.35 12.75C26.81 12.75 27.2 13.13 27.2 13.6C27.19 14.06 26.81 14.44 26.35 14.45ZM29.75 11.89L28.23 11.89C27.31 10.85 25.72 10.76 24.68 11.68C24.6 11.75 24.53 11.82 24.46 11.89L22.95 11.89L22.95 4.25L24.65 4.25L24.65 6.8C24.64 7.26 25.03 7.64 25.5 7.64L25.5 7.64L29.6 7.64L29.75 7.88L29.75 11.89Z" fill="#FFFFFF" fill-opacity="1.000000" fill-rule="nonzero"/>
	<path id="Vector" d="M50.7 37.6L45.89 33.44L45.89 27.2C45.89 26.73 45.51 26.34 45.04 26.34L45.04 26.34L41.64 26.34C41.18 26.34 40.79 26.73 40.79 27.19L40.79 27.2L40.79 29.02L37.95 26.55C37.63 26.28 37.16 26.28 36.84 26.55L24.09 37.6C23.73 37.91 23.7 38.45 24 38.8C24.16 38.99 24.4 39.09 24.64 39.09L28.89 39.09L28.89 49.29C28.89 49.76 29.27 50.14 29.74 50.14L29.74 50.14L45.04 50.14C45.51 50.14 45.89 49.76 45.89 49.3L45.89 49.29L45.89 39.09L50.14 39.09C50.61 39.09 51 38.71 50.99 38.24C50.99 38 50.89 37.76 50.7 37.6ZM39.09 48.45L35.69 48.45L35.69 44.2C35.69 43.26 36.46 42.49 37.39 42.49C38.33 42.49 39.09 43.26 39.09 44.2L39.09 48.45ZM45.04 37.39C44.58 37.39 44.19 37.78 44.19 38.24L44.19 38.24L44.19 48.45L40.79 48.45L40.79 44.2C40.79 42.32 39.27 40.79 37.39 40.79C35.52 40.79 33.99 42.32 33.99 44.2L33.99 48.45L30.59 48.45L30.59 38.24C30.59 37.78 30.21 37.39 29.75 37.39L29.74 37.39L26.92 37.39L37.39 28.32L41.09 31.52C41.44 31.83 41.98 31.79 42.29 31.43C42.42 31.28 42.49 31.08 42.49 30.88L42.49 28.04L44.19 28.04L44.19 33.82C44.19 34.07 44.3 34.31 44.49 34.47L47.87 37.39L45.04 37.39Z" fill="#FFFFFF" fill-opacity="1.000000" fill-rule="nonzero"/>
	<path id="Vector" d="M0 2.55L4.25 2.55L4.25 4.25L0 4.25L0 2.55Z" fill="#FFFFFF" fill-opacity="1.000000" fill-rule="evenodd"/>
	<path id="Vector" d="M0 5.94L4.25 5.94L4.25 7.64L0 7.64L0 5.94Z" fill="#FFFFFF" fill-opacity="1.000000" fill-rule="evenodd"/>
	<path id="Vector" d="M0 9.35L4.25 9.35L4.25 11.05L0 11.05L0 9.35Z" fill="#FFFFFF" fill-opacity="1.000000" fill-rule="evenodd"/>
	<path id="Vector" d="M44.2 8.5L33.14 8.5L33.14 10.2L44.2 10.2C47.01 10.2 49.29 12.48 49.29 15.3C49.29 18.11 47.01 20.39 44.2 20.39L12.75 20.39C5.7 20.39 0 26.1 0 33.14C0 40.19 5.7 45.89 12.75 45.89L27.2 45.89L27.2 44.2L12.75 44.2C6.64 44.2 1.7 39.25 1.7 33.14C1.7 27.04 6.64 22.1 12.75 22.1L44.2 22.1C47.95 22.1 51 19.05 51 15.3C51 11.54 47.95 8.5 44.2 8.5Z" fill="#FFFFFF" fill-opacity="1.000000" fill-rule="nonzero"/>
</svg>
