<svg width="17.000000" height="10.000000" viewBox="0 0 17 10" fill="none" xmlns="http://www.w3.org/2000/svg" xmlns:xlink="http://www.w3.org/1999/xlink">
	<desc>
			Created with Pixso.
	</desc>
	<defs/>
	<path id="Vector" d="M16.66 1.98L9.12 9.74C9.03 9.83 8.94 9.9 8.83 9.94C8.73 9.98 8.61 10 8.5 10C8.38 10 8.26 9.98 8.16 9.94C8.05 9.9 7.96 9.83 7.87 9.74L0.31 1.98C0.1 1.76 0 1.49 0 1.17C0 0.85 0.11 0.57 0.33 0.34C0.56 0.11 0.82 0 1.12 0C1.41 0 1.68 0.11 1.9 0.34L8.5 7.11L15.09 0.34C15.3 0.13 15.56 0.02 15.86 0.02C16.17 0.02 16.43 0.13 16.66 0.36C16.88 0.59 17 0.86 17 1.17C17 1.48 16.88 1.75 16.66 1.98Z" fill="#302929" fill-opacity="1.000000" fill-rule="nonzero"/>
</svg>
