<svg width="47.000000" height="47.000000" viewBox="0 0 47 47" fill="none" xmlns="http://www.w3.org/2000/svg" xmlns:xlink="http://www.w3.org/1999/xlink">
	<desc>
			Created with Pixso.
	</desc>
	<defs>
		<clipPath id="clip55_527">
			<rect id="cash-on-delivery" width="47.000000" height="47.000000" fill="white" fill-opacity="0"/>
		</clipPath>
	</defs>
	<rect id="cash-on-delivery" width="47.000000" height="47.000000" fill="#FFFFFF" fill-opacity="0"/>
	<g clip-path="url(#clip55_527)">
		<path id="Vector" d="M3.85 30.51L3.85 43.84C3.85 44.02 3.93 44.2 4.06 44.33C4.19 44.47 4.37 44.54 4.56 44.54L8.76 44.54C9.26 44.54 9.75 44.36 10.13 44.03C10.51 43.71 10.76 43.25 10.84 42.76L17.53 45.85C19.14 46.56 20.92 46.8 22.66 46.52C24.4 46.24 26.02 45.46 27.32 44.28L36.24 36.2C37.74 34.93 36.62 32.35 34.72 32.52L34.72 24.9C34.72 24.34 34.5 23.81 34.1 23.41C33.71 23.02 33.17 22.8 32.61 22.79C30.08 22.8 24.58 22.79 22.09 22.79L15.78 22.79C15.22 22.8 14.69 23.02 14.29 23.41C13.9 23.81 13.68 24.34 13.67 24.9L13.67 31.23C13.66 31.19 10.87 31.22 10.74 31.21C10.59 30.8 10.33 30.45 9.97 30.2C9.62 29.95 9.2 29.81 8.76 29.81L4.56 29.81C4.46 29.81 4.37 29.83 4.29 29.86C4.2 29.9 4.12 29.95 4.06 30.01C4 30.08 3.94 30.16 3.91 30.24C3.87 30.33 3.85 30.42 3.85 30.51ZM25.6 24.2L25.6 27.08L24.59 26.39C24.01 25.97 23.35 26.76 22.79 27.08L22.79 24.2L25.6 24.2ZM15.78 24.2L21.39 24.2L21.39 28.41C21.42 28.61 21.48 28.82 21.66 28.95C21.78 29.04 21.92 29.09 22.07 29.1C22.22 29.1 22.36 29.06 22.49 28.99L24.2 27.82L25.91 28.99C26.04 29.08 26.21 29.12 26.38 29.1C26.55 29.08 26.7 29 26.81 28.88C26.94 28.75 26.98 28.57 27 28.41L27 24.2L32.61 24.2C32.8 24.2 32.98 24.27 33.11 24.4C33.24 24.53 33.32 24.71 33.32 24.9L33.32 33.02L22.99 38.05C24.24 36.06 22.65 33.25 20.3 33.32L15.6 33.32C15.47 32.94 15.33 32.37 15.08 32.07L15.08 24.9C15.08 24.71 15.15 24.53 15.28 24.4C15.41 24.27 15.59 24.2 15.78 24.2ZM14.05 33.1C14.31 33.71 14.33 34.73 15.09 34.72L20.3 34.72C20.76 34.72 21.21 34.9 21.54 35.23C21.87 35.56 22.05 36.01 22.05 36.47C22.05 36.94 21.87 37.38 21.54 37.71C21.21 38.04 20.76 38.23 20.3 38.23L17.18 38.23C17.09 38.23 17 38.24 16.91 38.28C16.83 38.31 16.75 38.36 16.68 38.43C16.62 38.49 16.56 38.57 16.53 38.66C16.49 38.74 16.47 38.83 16.47 38.93C16.47 39.02 16.49 39.11 16.53 39.2C16.56 39.28 16.62 39.36 16.68 39.43C16.75 39.49 16.83 39.54 16.91 39.58C17 39.61 17.09 39.63 17.18 39.63L22.79 39.63C22.9 39.63 23 39.6 23.1 39.56C23.24 39.49 34.58 33.96 34.51 33.99C34.66 33.91 34.84 33.89 35 33.93C35.17 33.98 35.32 34.08 35.41 34.23C35.51 34.37 35.56 34.54 35.54 34.72C35.52 34.89 35.43 35.05 35.3 35.16L26.38 43.24C25.28 44.24 23.91 44.9 22.44 45.13C20.98 45.37 19.47 45.17 18.11 44.57L10.87 41.23L10.87 32.62L13.38 32.62C13.53 32.61 13.68 32.66 13.79 32.75C13.91 32.83 14 32.96 14.05 33.1ZM5.26 31.21L8.76 31.21C8.95 31.21 9.13 31.29 9.26 31.42C9.39 31.55 9.47 31.73 9.47 31.92L9.47 42.43C9.47 42.62 9.39 42.8 9.26 42.93C9.13 43.06 8.95 43.14 8.76 43.14L5.26 43.14L5.26 31.21Z" fill="#000000" fill-opacity="1.000000" fill-rule="nonzero"/>
		<path id="Vector" d="M27 33.32L29.11 33.32C30.02 33.31 30.02 31.92 29.11 31.91L27 31.91C26.09 31.92 26.08 33.31 27 33.32Z" fill="#000000" fill-opacity="1.000000" fill-rule="nonzero"/>
		<path id="Vector" d="M43.14 15.78L43.14 5.26C43.14 5.07 43.06 4.89 42.93 4.76C42.8 4.63 42.62 4.56 42.43 4.56C41.94 4.6 37.9 4.44 37.53 4.68L31.46 1.27C30.14 0.53 28.62 0.22 27.11 0.41C25.6 0.6 24.2 1.27 23.11 2.33L19.87 5.46L14.68 2.24L12.29 0.77C12.21 0.72 12.12 0.68 12.03 0.67C11.94 0.66 11.85 0.66 11.76 0.68C11.67 0.7 11.58 0.74 11.51 0.8C11.43 0.85 11.37 0.92 11.32 1C10.49 2.38 8.71 5.33 7.87 6.72L6.41 9.15C6.32 9.31 6.29 9.5 6.33 9.68C6.37 9.85 6.48 10.01 6.64 10.11L21.1 19.24C24.68 21.44 23.64 21.64 25.96 18.16C25.96 18.16 25.96 18.16 25.96 18.16C25.96 18.16 27.29 16.11 27.29 16.11L28.64 16.93C29.41 17.4 30.3 17.65 31.21 17.64C32.12 17.63 33.01 17.37 33.77 16.88L36.33 15.27C36.49 15.63 36.76 15.93 37.1 16.15C37.44 16.37 37.83 16.48 38.23 16.48L42.43 16.48C42.53 16.48 42.62 16.46 42.7 16.43C42.79 16.39 42.87 16.34 42.93 16.28C43 16.21 43.05 16.13 43.08 16.05C43.12 15.96 43.14 15.87 43.14 15.78ZM12.16 2.33L13.24 3.01C13 3.21 12.72 3.36 12.42 3.43C12.11 3.51 11.79 3.51 11.49 3.44L12.16 2.33ZM8.63 8.18C8.84 8.43 8.98 8.72 9.06 9.03C9.13 9.34 9.13 9.67 9.06 9.98L7.97 9.29L8.63 8.18ZM23.63 19.18L22.54 18.49C22.79 18.29 23.08 18.14 23.39 18.07C23.71 18 24.03 18 24.35 18.08L23.63 19.18ZM25.13 16.86C23.83 16.32 22.24 16.69 21.31 17.71L10.29 10.75C10.53 10.1 10.58 9.38 10.42 8.7C10.26 8.02 9.9 7.4 9.39 6.92L10.74 4.68C12.03 5.18 13.57 4.79 14.48 3.77L22.04 8.44C20.37 9.36 20.37 11.99 22.02 12.91L26.09 15.38L25.13 16.86ZM33.02 15.69C32.48 16.04 31.84 16.23 31.2 16.23C30.55 16.24 29.92 16.06 29.37 15.73L22.75 11.72C22.61 11.63 22.49 11.52 22.4 11.39C22.3 11.26 22.24 11.11 22.2 10.95C21.94 9.96 23.11 9.08 23.97 9.65L28.37 12.36C28.67 12.57 29.11 12.83 29.46 12.59C29.92 12.35 29.91 11.66 29.48 11.4L21.1 6.22L24.08 3.33C24.96 2.49 26.08 1.95 27.29 1.8C28.49 1.65 29.71 1.89 30.77 2.5L36.39 5.65C36.22 5.96 36.12 6.3 36.12 6.66L36.12 13.74L33.02 15.69ZM41.73 15.08L38.23 15.08C38.04 15.08 37.86 15 37.73 14.87C37.6 14.74 37.53 14.56 37.52 14.38L37.52 6.66C37.52 6.47 37.6 6.3 37.73 6.16C37.86 6.03 38.04 5.96 38.22 5.96L41.73 5.96L41.73 15.08Z" fill="#000000" fill-opacity="1.000000" fill-rule="nonzero"/>
		<path id="Vector" d="M17.88 8.06C14.17 8.18 14.18 13.56 17.88 13.68C21.59 13.56 21.59 8.18 17.88 8.06ZM17.88 12.27C16.04 12.24 16.04 9.5 17.88 9.47C19.73 9.5 19.73 12.24 17.88 12.27Z" fill="#000000" fill-opacity="1.000000" fill-rule="nonzero"/>
		<path id="Vector" d="M40.13 13.47C40.43 13.09 40.36 12.72 40.13 12.48C39.76 12.18 39.39 12.23 39.13 12.48C39 12.61 38.93 12.79 38.93 12.97C38.93 13.16 39 13.34 39.13 13.47C39.38 13.71 39.75 13.77 40.13 13.47Z" fill="#000000" fill-opacity="1.000000" fill-rule="nonzero"/>
		<path id="Vector" d="M6.86 40.53C6.62 40.78 6.56 41.15 6.86 41.53C6.96 41.63 7.09 41.7 7.22 41.72C7.36 41.75 7.5 41.74 7.63 41.68C7.76 41.63 7.87 41.54 7.95 41.42C8.02 41.31 8.07 41.17 8.07 41.03C8.07 40.89 8.02 40.76 7.95 40.64C7.87 40.52 7.76 40.43 7.63 40.38C7.5 40.33 7.36 40.31 7.22 40.34C7.09 40.37 6.96 40.44 6.86 40.53Z" fill="#000000" fill-opacity="1.000000" fill-rule="nonzero"/>
	</g>
</svg>
