<svg width="54.000000" height="54.000000" viewBox="0 0 54 54" fill="none" xmlns="http://www.w3.org/2000/svg" xmlns:xlink="http://www.w3.org/1999/xlink">
	<desc>
			Created with Pixso.
	</desc>
	<defs>
		<clipPath id="clip55_612">
			<rect id="free-icon-subscription-9398940 1" width="54.000000" height="54.000000" fill="white" fill-opacity="0"/>
		</clipPath>
	</defs>
	<rect id="free-icon-subscription-9398940 1" width="54.000000" height="54.000000" fill="#FFFFFF" fill-opacity="0"/>
	<g clip-path="url(#clip55_612)">
		<path id="Vector" d="M18.89 47.84L2.68 47.84C1.2 47.84 0 46.63 0 45.15L0 10.89C0 9.41 1.2 8.2 2.68 8.2L16.84 8.2C17.19 8.2 17.47 8.49 17.47 8.84C17.47 9.19 17.19 9.47 16.84 9.47L2.68 9.47C1.9 9.47 1.26 10.11 1.26 10.89L1.26 45.15C1.26 45.94 1.9 46.57 2.68 46.57L18.89 46.57C19.67 46.57 20.31 45.94 20.31 45.15C20.31 44.8 20.59 44.52 20.94 44.52C21.29 44.52 21.58 44.8 21.58 45.15C21.58 46.63 20.37 47.84 18.89 47.84Z" fill="#000000" fill-opacity="1.000000" fill-rule="evenodd"/>
		<path id="Vector" d="M35.1 45.79L18.89 45.79C17.41 45.79 16.21 44.58 16.21 43.1L16.21 8.84C16.21 7.36 17.41 6.15 18.89 6.15L35.1 6.15C36.58 6.15 37.79 7.36 37.79 8.84L37.79 43.1C37.79 44.58 36.58 45.79 35.1 45.79ZM18.89 7.42C18.11 7.42 17.47 8.05 17.47 8.84L17.47 43.1C17.47 43.88 18.11 44.52 18.89 44.52L35.1 44.52C35.88 44.52 36.52 43.88 36.52 43.1L36.52 8.84C36.52 8.05 35.88 7.42 35.1 7.42L18.89 7.42Z" fill="#000000" fill-opacity="1.000000" fill-rule="evenodd"/>
		<path id="Vector" d="M51.31 47.84L35.1 47.84C33.62 47.84 32.41 46.63 32.41 45.15C32.41 44.8 32.7 44.52 33.05 44.52C33.4 44.52 33.68 44.8 33.68 45.15C33.68 45.94 34.32 46.57 35.1 46.57L51.31 46.57C52.09 46.57 52.73 45.94 52.73 45.15L52.73 10.89C52.73 10.11 52.09 9.47 51.31 9.47L37.15 9.47C36.8 9.47 36.52 9.19 36.52 8.84C36.52 8.49 36.8 8.2 37.15 8.2L51.31 8.2C52.79 8.2 54 9.41 54 10.89L54 45.15C54 46.63 52.79 47.84 51.31 47.84Z" fill="#000000" fill-opacity="1.000000" fill-rule="evenodd"/>
		<path id="Vector" d="M8.73 23.84C6.94 23.84 5.48 22.38 5.48 20.59C5.48 20.24 5.77 19.95 6.12 19.95C6.47 19.95 6.75 20.24 6.75 20.59C6.75 21.68 7.64 22.57 8.73 22.57C9.83 22.57 10.72 21.68 10.72 20.59C10.72 19.49 9.83 18.6 8.73 18.6C6.94 18.6 5.48 17.15 5.48 15.35C5.48 13.56 6.94 12.11 8.73 12.11C10.52 12.11 11.98 13.56 11.98 15.35C11.98 15.71 11.7 15.99 11.35 15.99C11 15.99 10.72 15.71 10.72 15.35C10.72 14.26 9.83 13.37 8.73 13.37C7.64 13.37 6.75 14.26 6.75 15.35C6.75 16.45 7.64 17.34 8.73 17.34C10.52 17.34 11.98 18.8 11.98 20.59C11.98 22.38 10.52 23.84 8.73 23.84Z" fill="#000000" fill-opacity="1.000000" fill-rule="evenodd"/>
		<path id="Vector" d="M13.2 26.83L4.27 26.83C3.92 26.83 3.64 26.54 3.64 26.19C3.64 25.84 3.92 25.56 4.27 25.56L13.2 25.56C13.55 25.56 13.83 25.84 13.83 26.19C13.83 26.54 13.55 26.83 13.2 26.83Z" fill="#000000" fill-opacity="1.000000" fill-rule="evenodd"/>
		<path id="Vector" d="M13.2 32.67L4.27 32.67C3.92 32.67 3.64 32.39 3.64 32.04C3.64 31.69 3.92 31.41 4.27 31.41L13.2 31.41C13.55 31.41 13.83 31.69 13.83 32.04C13.83 32.39 13.55 32.67 13.2 32.67Z" fill="#000000" fill-opacity="1.000000" fill-rule="evenodd"/>
		<path id="Vector" d="M13.2 38.52L4.27 38.52C3.92 38.52 3.64 38.24 3.64 37.89C3.64 37.54 3.92 37.26 4.27 37.26L13.2 37.26C13.55 37.26 13.83 37.54 13.83 37.89C13.83 38.24 13.55 38.52 13.2 38.52Z" fill="#000000" fill-opacity="1.000000" fill-rule="evenodd"/>
		<path id="Vector" d="M13.61 43.94L3.86 43.94C3.51 43.94 3.23 43.65 3.23 43.3L3.23 40.89C3.23 40.54 3.51 40.26 3.86 40.26L13.61 40.26C13.96 40.26 14.24 40.54 14.24 40.89L14.24 43.3C14.24 43.65 13.96 43.94 13.61 43.94ZM4.49 42.67L12.97 42.67L12.97 41.53L4.49 41.53L4.49 42.67Z" fill="#000000" fill-opacity="1.000000" fill-rule="evenodd"/>
		<path id="Vector" d="M45.26 23.84C43.47 23.84 42.01 22.38 42.01 20.59C42.01 20.24 42.29 19.95 42.64 19.95C42.99 19.95 43.27 20.24 43.27 20.59C43.27 21.68 44.16 22.57 45.26 22.57C46.35 22.57 47.24 21.68 47.24 20.59C47.24 19.49 46.35 18.6 45.26 18.6C43.47 18.6 42.01 17.15 42.01 15.35C42.01 13.56 43.47 12.11 45.26 12.11C47.05 12.11 48.51 13.56 48.51 15.35C48.51 15.71 48.22 15.99 47.87 15.99C47.52 15.99 47.24 15.71 47.24 15.35C47.24 14.26 46.35 13.37 45.26 13.37C44.16 13.37 43.27 14.26 43.27 15.35C43.27 16.45 44.16 17.34 45.26 17.34C47.05 17.34 48.51 18.8 48.51 20.59C48.51 22.38 47.05 23.84 45.26 23.84Z" fill="#000000" fill-opacity="1.000000" fill-rule="evenodd"/>
		<path id="Vector" d="M49.72 26.83L40.79 26.83C40.45 26.83 40.16 26.55 40.16 26.2C40.16 25.85 40.45 25.57 40.79 25.57L49.72 25.57C50.07 25.57 50.35 25.85 50.35 26.2C50.35 26.55 50.07 26.83 49.72 26.83Z" fill="#000000" fill-opacity="1.000000" fill-rule="evenodd"/>
		<path id="Vector" d="M49.72 32.68L40.79 32.68C40.45 32.68 40.16 32.4 40.16 32.05C40.16 31.7 40.45 31.41 40.79 31.41L49.72 31.41C50.07 31.41 50.35 31.7 50.35 32.05C50.35 32.4 50.07 32.68 49.72 32.68Z" fill="#000000" fill-opacity="1.000000" fill-rule="evenodd"/>
		<path id="Vector" d="M49.72 38.53L40.79 38.53C40.45 38.53 40.16 38.25 40.16 37.9C40.16 37.55 40.45 37.26 40.79 37.26L49.72 37.26C50.07 37.26 50.35 37.55 50.35 37.9C50.35 38.25 50.07 38.53 49.72 38.53Z" fill="#000000" fill-opacity="1.000000" fill-rule="evenodd"/>
		<path id="Vector" d="M50.13 43.94L40.38 43.94C40.04 43.94 39.75 43.65 39.75 43.3L39.75 40.89C39.75 40.54 40.04 40.26 40.38 40.26L50.13 40.26C50.48 40.26 50.76 40.54 50.76 40.89L50.76 43.3C50.76 43.65 50.48 43.94 50.13 43.94ZM41.02 42.67L49.5 42.67L49.5 41.53L41.02 41.53L41.02 42.67Z" fill="#000000" fill-opacity="1.000000" fill-rule="evenodd"/>
		<path id="Vector" d="M26.99 21.22C25.2 21.22 23.75 19.76 23.75 17.97C23.75 17.62 24.03 17.33 24.38 17.33C24.73 17.33 25.01 17.62 25.01 17.97C25.01 19.06 25.9 19.95 26.99 19.95C28.09 19.95 28.98 19.06 28.98 17.97C28.98 16.87 28.09 15.98 26.99 15.98C25.2 15.98 23.75 14.53 23.75 12.73C23.75 10.94 25.2 9.49 26.99 9.49C28.79 9.49 30.24 10.94 30.24 12.73C30.24 13.08 29.96 13.37 29.61 13.37C29.26 13.37 28.98 13.08 28.98 12.73C28.98 11.64 28.09 10.75 26.99 10.75C25.9 10.75 25.01 11.64 25.01 12.73C25.01 13.83 25.9 14.72 26.99 14.72C28.79 14.72 30.24 16.18 30.24 17.97C30.24 19.76 28.79 21.22 26.99 21.22Z" fill="#000000" fill-opacity="1.000000" fill-rule="evenodd"/>
		<path id="Vector" d="M31.46 24.78L22.53 24.78C22.18 24.78 21.9 24.5 21.9 24.15C21.9 23.8 22.18 23.52 22.53 23.52L31.46 23.52C31.81 23.52 32.09 23.8 32.09 24.15C32.09 24.5 31.81 24.78 31.46 24.78Z" fill="#000000" fill-opacity="1.000000" fill-rule="evenodd"/>
		<path id="Vector" d="M31.46 30.63L22.53 30.63C22.18 30.63 21.9 30.35 21.9 30C21.9 29.65 22.18 29.36 22.53 29.36L31.46 29.36C31.81 29.36 32.09 29.65 32.09 30C32.09 30.35 31.81 30.63 31.46 30.63Z" fill="#000000" fill-opacity="1.000000" fill-rule="evenodd"/>
		<path id="Vector" d="M31.46 36.48L22.53 36.48C22.18 36.48 21.9 36.19 21.9 35.84C21.9 35.49 22.18 35.21 22.53 35.21L31.46 35.21C31.81 35.21 32.09 35.49 32.09 35.84C32.09 36.19 31.81 36.48 31.46 36.48Z" fill="#000000" fill-opacity="1.000000" fill-rule="evenodd"/>
		<path id="Vector" d="M31.87 42.45L22.12 42.45C21.77 42.45 21.49 42.17 21.49 41.82L21.49 39.41C21.49 39.06 21.77 38.78 22.12 38.78L31.87 38.78C32.22 38.78 32.5 39.06 32.5 39.41L32.5 41.82C32.5 42.17 32.22 42.45 31.87 42.45ZM22.75 41.19L31.23 41.19L31.23 40.04L22.75 40.04L22.75 41.19Z" fill="#000000" fill-opacity="1.000000" fill-rule="evenodd"/>
	</g>
</svg>
