<svg width="21.186035" height="21.186035" viewBox="0 0 21.186 21.186" fill="none" xmlns="http://www.w3.org/2000/svg" xmlns:xlink="http://www.w3.org/1999/xlink">
	<desc>
			Created with Pixso.
	</desc>
	<defs/>
	<mask id="mask_56_688" fill="white">
		<path id="Combined Shape" d="M14.5654 0L6.62061 0C2.96484 0 0 2.96484 0 6.62061L0 14.5654C0 18.2212 2.96484 21.186 6.62061 21.186L14.5654 21.186C18.2212 21.186 21.186 18.2212 21.186 14.5654L21.186 6.62061C21.186 2.96484 18.2212 0 14.5654 0ZM19.2002 14.5649C19.2002 17.1206 17.1211 19.1997 14.5654 19.1997L6.62061 19.1997C4.06494 19.1997 1.98633 17.1206 1.98633 14.5649L1.98633 6.62061C1.98633 4.06494 4.06494 1.98584 6.62061 1.98584L14.5654 1.98584C17.1211 1.98584 19.2002 4.06494 19.2002 6.62061L19.2002 14.5649ZM16.2134 4.32373C15.855 4.32373 15.5645 4.61426 15.5645 4.97217C15.5645 5.33057 15.855 5.62061 16.2134 5.62061C16.5713 5.62061 16.8618 5.33057 16.8618 4.97217C16.8618 4.61426 16.5713 4.32373 16.2134 4.32373ZM5.18799 10.5923C5.18799 7.60742 7.60791 5.1875 10.5928 5.1875C13.5771 5.1875 15.9971 7.60742 15.9971 10.5923C15.9971 13.5767 13.5771 15.9966 10.5928 15.9966C7.60791 15.9966 5.18799 13.5767 5.18799 10.5923ZM7.21484 10.5923C7.21484 12.4541 8.73047 13.9702 10.5928 13.9702C12.4546 13.9702 13.9702 12.4541 13.9702 10.5923C13.9702 8.729 12.4546 7.21436 10.5928 7.21436C8.73047 7.21436 7.21484 8.729 7.21484 10.5923Z" clip-rule="evenodd" fill="" fill-opacity="1.000000" fill-rule="evenodd"/>
	</mask>
	<path id="Combined Shape" d="M14.5654 0L6.62061 0C2.96484 0 0 2.96484 0 6.62061L0 14.5654C0 18.2212 2.96484 21.186 6.62061 21.186L14.5654 21.186C18.2212 21.186 21.186 18.2212 21.186 14.5654L21.186 6.62061C21.186 2.96484 18.2212 0 14.5654 0ZM19.2002 14.5649C19.2002 17.1206 17.1211 19.1997 14.5654 19.1997L6.62061 19.1997C4.06494 19.1997 1.98633 17.1206 1.98633 14.5649L1.98633 6.62061C1.98633 4.06494 4.06494 1.98584 6.62061 1.98584L14.5654 1.98584C17.1211 1.98584 19.2002 4.06494 19.2002 6.62061L19.2002 14.5649ZM16.2134 4.32373C15.855 4.32373 15.5645 4.61426 15.5645 4.97217C15.5645 5.33057 15.855 5.62061 16.2134 5.62061C16.5713 5.62061 16.8618 5.33057 16.8618 4.97217C16.8618 4.61426 16.5713 4.32373 16.2134 4.32373ZM5.18799 10.5923C5.18799 7.60742 7.60791 5.1875 10.5928 5.1875C13.5771 5.1875 15.9971 7.60742 15.9971 10.5923C15.9971 13.5767 13.5771 15.9966 10.5928 15.9966C7.60791 15.9966 5.18799 13.5767 5.18799 10.5923ZM7.21484 10.5923C7.21484 12.4541 8.73047 13.9702 10.5928 13.9702C12.4546 13.9702 13.9702 12.4541 13.9702 10.5923C13.9702 8.729 12.4546 7.21436 10.5928 7.21436C8.73047 7.21436 7.21484 8.729 7.21484 10.5923Z" clip-rule="evenodd" fill="#FFFFFF" fill-opacity="1.000000" fill-rule="evenodd" mask="url(#mask_56_688)"/>
	<path id="Combined Shape" d="" fill="#979797" fill-opacity="0.000000" fill-rule="nonzero"/>
</svg>
