<svg width="62.000000" height="62.000000" viewBox="0 0 62 62" fill="none" xmlns="http://www.w3.org/2000/svg" xmlns:xlink="http://www.w3.org/1999/xlink">
	<desc>
			Created with Pixso.
	</desc>
	<defs/>
	<path id="Vector" d="M31 62C37.13 62 43.12 60.18 48.22 56.77C53.32 53.36 57.29 48.52 59.64 42.86C61.98 37.19 62.6 30.96 61.4 24.95C60.2 18.93 57.25 13.41 52.91 9.07C48.58 4.74 43.06 1.79 37.04 0.59C31.03 -0.61 24.8 0.01 19.13 2.35C13.47 4.7 8.63 8.67 5.22 13.77C1.81 18.87 0 24.86 0 31C0.01 39.21 3.28 47.09 9.09 52.9C14.9 58.71 22.78 61.98 31 62ZM31 2.47C36.64 2.47 42.15 4.15 46.84 7.28C51.53 10.42 55.19 14.87 57.34 20.08C59.5 25.29 60.07 31.03 58.97 36.56C57.87 42.09 55.15 47.17 51.16 51.16C47.17 55.15 42.09 57.87 36.56 58.97C31.03 60.07 25.29 59.5 20.08 57.34C14.87 55.19 10.41 51.53 7.28 46.84C4.15 42.15 2.48 36.64 2.48 31C2.48 23.43 5.49 16.18 10.84 10.84C16.18 5.49 23.43 2.48 31 2.47ZM17.36 31C17.36 30.67 17.49 30.35 17.72 30.12C17.95 29.89 18.27 29.76 18.59 29.76L40.39 29.76L31.99 21.35C31.76 21.11 31.64 20.8 31.64 20.47C31.64 20.14 31.76 19.83 31.99 19.59C32.11 19.47 32.25 19.38 32.4 19.32C32.56 19.26 32.72 19.24 32.89 19.25C33.05 19.24 33.21 19.27 33.36 19.33C33.5 19.39 33.64 19.47 33.75 19.59L44.26 30.13C44.38 30.24 44.47 30.37 44.54 30.52C44.6 30.67 44.63 30.83 44.63 31C44.63 31.16 44.6 31.32 44.54 31.47C44.47 31.62 44.38 31.75 44.26 31.86L33.75 42.4C33.52 42.64 33.2 42.77 32.87 42.77C32.54 42.77 32.22 42.64 31.99 42.4C31.75 42.17 31.62 41.85 31.62 41.52C31.62 41.19 31.75 40.87 31.99 40.64L40.39 32.24L18.59 32.24C18.27 32.24 17.95 32.1 17.72 31.87C17.49 31.64 17.36 31.32 17.36 31Z" fill="#8EC038" fill-opacity="1.000000" fill-rule="nonzero"/>
</svg>
