<svg width="11.000000" height="20.000000" viewBox="0 0 11 20" fill="none" xmlns="http://www.w3.org/2000/svg" xmlns:xlink="http://www.w3.org/1999/xlink">
	<desc>
			Created with Pixso.
	</desc>
	<defs/>
	<path id="Vector" d="M1.24 0.02L10.02 8.77C10.12 8.87 10.19 8.98 10.24 9.1C10.28 9.23 10.3 9.36 10.3 9.49C10.3 9.63 10.28 9.76 10.24 9.89C10.19 10.01 10.12 10.12 10.02 10.22L1.24 19C1 19.24 0.69 19.36 0.33 19.36C-0.04 19.36 -0.35 19.23 -0.61 18.97C-0.87 18.71 -1 18.41 -1 18.06C-1 17.72 -0.87 17.41 -0.61 17.15L7.05 9.49L-0.61 1.84C-0.85 1.6 -0.97 1.3 -0.97 0.94C-0.97 0.58 -0.84 0.28 -0.58 0.02C-0.32 -0.24 -0.02 -0.37 0.33 -0.37C0.68 -0.37 0.98 -0.24 1.24 0.02Z" fill="#FFFFFF" fill-opacity="1.000000" fill-rule="nonzero"/>
</svg>
