<svg width="34.000000" height="35.000000" viewBox="0 0 34 35" fill="none" xmlns="http://www.w3.org/2000/svg" xmlns:xlink="http://www.w3.org/1999/xlink">
	<desc>
			Created with Pixso.
	</desc>
	<defs/>
	<path d="M31.83 19.65C31.55 19.31 31.25 18.99 30.93 18.69C31.45 17.89 31.76 16.92 31.76 15.88C31.76 15.06 31.57 14.25 31.2 13.53C31.08 13.28 30.77 13.18 30.53 13.31C30.29 13.45 30.19 13.76 30.32 14.01C30.62 14.59 30.77 15.22 30.77 15.88C30.77 16.67 30.54 17.42 30.15 18.05C29.91 17.87 29.66 17.7 29.4 17.54C29.7 17.06 29.87 16.49 29.87 15.88C29.87 14.16 28.51 12.76 26.84 12.76C26.35 12.76 25.88 12.88 25.47 13.09L25.47 12.09C25.9 11.92 26.36 11.83 26.84 11.83C27.58 11.83 28.29 12.05 28.92 12.45C29.15 12.6 29.46 12.52 29.6 12.28C29.75 12.04 29.68 11.73 29.44 11.58C28.66 11.07 27.76 10.81 26.84 10.81C26.36 10.81 25.91 10.88 25.47 11.01L25.47 7.04C26.36 7.03 27.09 6.28 27.09 5.36C27.09 4.43 26.36 3.68 25.46 3.68L26.18 1.13C26.26 0.86 26.21 0.57 26.04 0.35C25.88 0.12 25.63 0 25.35 0L19.23 0C18.95 0 18.7 0.13 18.54 0.35C18.37 0.58 18.33 0.86 18.41 1.14L19.15 3.68L17.19 3.68C16.88 3.68 16.59 3.86 16.45 4.14C16.3 4.43 16.32 4.77 16.5 5.04L17.19 6.06C17.6 6.67 18.28 7.04 19.01 7.04L19.23 7.04L19.23 15.15C19.23 15.76 18.81 16.28 18.23 16.39C16.64 16.67 15.15 17.4 13.91 18.47C13.61 16.27 12.96 14.33 12.03 12.9C11.9 12.7 11.68 12.58 11.45 12.58C11.21 12.58 10.99 12.7 10.86 12.9C9.55 14.92 8.79 17.99 8.79 21.32C8.79 21.83 8.81 22.33 8.85 22.82C8.6 22.54 8.35 22.26 8.08 21.98C7.91 21.81 7.73 21.63 7.54 21.45C7.34 21.25 7.02 21.27 6.83 21.47C6.65 21.68 6.66 22.01 6.86 22.2C7.04 22.37 7.21 22.54 7.38 22.71C8.28 23.64 9.07 24.64 9.71 25.64C9.61 25.71 9.51 25.79 9.42 25.87C9.11 25.7 8.77 25.57 8.42 25.47L4.86 21.81C4.67 21.61 4.35 21.61 4.16 21.81C3.96 22.01 3.96 22.33 4.16 22.53L6.84 25.3C6.36 25.32 5.9 25.41 5.47 25.56C5.32 25.42 5.18 25.27 5.03 25.12C3.06 23.09 1.61 20.71 1.09 18.65C2.34 18.99 3.75 19.71 5.1 20.71C5.33 20.88 5.64 20.83 5.8 20.6C5.96 20.37 5.91 20.05 5.69 19.88C4.03 18.65 2.35 17.84 0.83 17.54C0.6 17.49 0.37 17.57 0.2 17.74C0.04 17.91 -0.04 18.15 0.01 18.39C0.23 19.53 0.73 20.81 1.46 22.08C2.21 23.4 3.18 24.66 4.33 25.85C4.38 25.9 4.44 25.96 4.5 26.02C3.21 26.81 2.36 28.18 2.36 29.74C2.36 32.19 4.48 34.18 7.09 34.18C8.22 34.18 9.27 33.8 10.08 33.17C10.96 33.84 11.98 34.18 12.97 34.18C13.83 34.18 14.67 33.93 15.37 33.42C16.41 33.91 17.56 34.18 18.77 34.18L25.81 34.18C30.33 34.18 34 30.4 34 25.76C34 23.53 33.23 21.37 31.83 19.65ZM26.84 13.78C27.96 13.78 28.87 14.72 28.87 15.88C28.87 16.32 28.74 16.73 28.51 17.07C27.86 16.77 27.17 16.54 26.46 16.4C25.88 16.29 25.47 15.78 25.47 15.17L25.47 14.33C25.83 13.99 26.31 13.78 26.84 13.78ZM19.41 1.02L25.17 1.02L24.42 3.68L20.19 3.68L19.41 1.02ZM18.01 5.47L17.49 4.7L25.46 4.7C25.81 4.7 26.09 5 26.09 5.36C26.09 5.72 25.81 6.01 25.46 6.01L19.01 6.01C18.61 6.01 18.23 5.81 18.01 5.47ZM11.45 13.88C12.49 15.71 13.1 18.45 13.1 21.32C13.1 22.57 12.99 23.78 12.78 24.9C12.5 24.86 12.22 24.85 11.95 24.86L11.95 18.86C11.95 18.57 11.72 18.34 11.45 18.34C11.17 18.34 10.95 18.57 10.95 18.86L10.95 25.03C10.83 25.06 10.71 25.1 10.59 25.15C10.41 24.86 10.21 24.58 10.01 24.29C9.87 23.35 9.79 22.35 9.79 21.32C9.79 18.45 10.4 15.71 11.45 13.88ZM3.35 29.74C3.35 27.85 5.03 26.32 7.09 26.32C7.68 26.32 8.24 26.44 8.73 26.67C7.62 28.36 7.84 30.78 9.33 32.47C8.7 32.9 7.93 33.15 7.09 33.15C5.03 33.15 3.35 31.62 3.35 29.74ZM10.21 31.93C8.75 30.43 8.62 28.13 9.91 26.8C10.49 26.2 11.28 25.88 12.14 25.88C12.2 25.88 12.26 25.88 12.32 25.88C13.28 25.93 14.19 26.37 14.91 27.1C16.36 28.6 16.49 30.9 15.2 32.24C13.9 33.57 11.67 33.43 10.21 31.93ZM25.81 33.15L18.77 33.15C17.85 33.15 16.98 32.98 16.17 32.65C16.32 32.47 16.45 32.28 16.56 32.07C17.25 32.33 17.99 32.47 18.77 32.47L25.81 32.47C29.1 32.47 31.88 29.94 32.29 26.58C32.32 26.3 32.12 26.05 31.85 26.01C31.58 25.98 31.33 26.18 31.3 26.46C30.96 29.3 28.6 31.45 25.81 31.45L18.77 31.45C18.12 31.45 17.51 31.33 16.93 31.12C17.35 29.54 16.9 27.7 15.61 26.37C15.06 25.81 14.42 25.4 13.75 25.15C13.91 24.3 14.02 23.41 14.07 22.49C14.28 22.1 14.53 21.73 14.81 21.38C15.8 20.18 17.16 19.37 18.65 19.09L26.01 19.1C27.48 19.4 28.82 20.22 29.79 21.41C30.46 22.23 30.93 23.21 31.17 24.24C31.23 24.52 31.5 24.69 31.77 24.63C32.03 24.56 32.2 24.29 32.14 24.01C31.87 22.82 31.32 21.69 30.56 20.75C29.42 19.36 27.86 18.42 26.15 18.08C26.12 18.08 26.09 18.08 26.06 18.08L18.61 18.06C18.58 18.06 18.55 18.06 18.52 18.07C16.81 18.38 15.24 19.3 14.09 20.68C14.08 20.36 14.06 20.04 14.04 19.73C15.24 18.51 16.76 17.69 18.41 17.4C19.46 17.2 20.23 16.26 20.23 15.15L20.23 7.04L24.47 7.04L24.47 15.17C24.47 16.27 25.23 17.21 26.27 17.41C28.13 17.77 29.83 18.8 31.07 20.31C32.31 21.84 33 23.78 33 25.76C33 29.84 29.78 33.15 25.81 33.15Z" fill="#000000" fill-opacity="1.000000" fill-rule="nonzero"/>
	<path d="M4.59 28.76C4.32 28.76 4.1 28.99 4.1 29.27L4.1 30.2C4.1 30.49 4.32 30.72 4.59 30.72C4.87 30.72 5.09 30.49 5.09 30.2L5.09 29.27C5.09 28.99 4.87 28.76 4.59 28.76Z" fill="#000000" fill-opacity="1.000000" fill-rule="nonzero"/>
	<path d="M10.76 27.01L10.12 27.67C9.92 27.87 9.92 28.19 10.12 28.39C10.22 28.49 10.34 28.54 10.47 28.54C10.6 28.54 10.73 28.49 10.82 28.39L11.47 27.73C11.66 27.53 11.66 27.21 11.47 27.01C11.27 26.81 10.96 26.81 10.76 27.01Z" fill="#000000" fill-opacity="1.000000" fill-rule="nonzero"/>
</svg>
