<svg width="32.000000" height="32.000000" viewBox="0 0 32 32" fill="none" xmlns="http://www.w3.org/2000/svg" xmlns:xlink="http://www.w3.org/1999/xlink">
	<desc>
			Created with Pixso.
	</desc>
	<defs/>
	<path d="M31.15 24.54C31.01 24.41 30.86 24.28 30.7 24.18C30.48 24.03 30.19 24.09 30.05 24.31C29.91 24.52 29.97 24.82 30.18 24.96C30.72 25.32 31.06 25.93 31.06 26.58C31.06 27.1 30.85 27.59 30.49 27.96C30.1 28.35 29.57 28.55 29.02 28.53C28.89 28.52 28.76 28.57 28.66 28.66C28.57 28.76 28.52 28.89 28.53 29.02C28.55 29.56 28.35 30.1 27.96 30.49C27.19 31.25 25.97 31.24 25.21 30.49C24.84 30.12 24.64 29.63 24.64 29.11C24.64 28.59 24.84 28.1 25.21 27.73C25.47 27.48 25.87 27.19 25.5 26.82C25.5 26.82 23.64 24.97 23.64 24.97L24.97 23.64C24.97 23.64 26.82 25.5 26.82 25.5C27.02 25.7 27.37 25.67 27.54 25.44C27.6 25.36 27.66 25.28 27.74 25.21C27.96 24.98 28.22 24.82 28.52 24.73C28.77 24.65 28.91 24.39 28.83 24.14C28.75 23.89 28.49 23.76 28.24 23.83C27.83 23.96 27.45 24.19 27.13 24.48L25.48 22.82C25.48 22.82 25.04 21.73 24.97 21.21C24.81 20.1 24.79 18.99 24.81 17.88C24.82 17.06 24.82 16.23 24.74 15.41C24.34 11.26 22.24 7.62 20.54 5.29C18.98 3.14 16.99 1.25 16.96 1.22C15.71 -0.03 13.72 -0.33 11.33 0.35C9.04 1.01 6.65 2.51 4.58 4.58C2.51 6.65 1.01 9.05 0.35 11.33C-0.33 13.72 -0.03 15.71 1.22 16.96C1.25 16.99 3.13 18.96 5.29 20.54C7.2 21.93 9.29 23.1 11.52 23.87C12.17 24.1 12.84 24.29 13.51 24.44C14.6 24.68 15.71 24.81 16.82 24.81C18.29 24.81 19.75 24.76 21.21 24.97C21.73 25.04 22.77 25.46 22.8 25.47L24.48 27.13C23.98 27.67 23.7 28.37 23.7 29.11C23.7 29.88 24 30.61 24.54 31.15C25.09 31.7 25.81 32 26.58 32C27.35 32 28.08 31.7 28.62 31.15C29.08 30.69 29.37 30.09 29.45 29.45C30.09 29.37 30.69 29.08 31.15 28.62C31.7 28.08 32 27.35 32 26.58C32 25.81 31.7 25.09 31.15 24.54ZM1.25 11.59C1.87 9.45 3.28 7.2 5.24 5.24C7.2 3.28 9.45 1.87 11.59 1.25C12.34 1.04 13.04 0.93 13.67 0.93C14.76 0.93 15.66 1.25 16.29 1.88C17.28 2.87 17.51 4.54 16.92 6.58C16.31 8.72 14.89 10.98 12.93 12.93C10.97 14.89 8.72 16.31 6.58 16.92C4.54 17.51 2.87 17.28 1.88 16.29C0.89 15.3 0.67 13.63 1.25 11.59ZM21.34 24.04C21.03 23.99 20.72 23.96 20.42 23.93C19.54 23.86 18.66 23.85 17.77 23.86C15.99 23.89 14.39 23.75 12.68 23.26C10.17 22.53 7.97 21.33 5.87 19.8C5.07 19.22 4.37 18.65 3.8 18.14C4.02 18.16 4.26 18.18 4.51 18.18C5.23 18.18 6.01 18.06 6.84 17.82C9.13 17.17 11.53 15.67 13.6 13.6C15.67 11.53 17.17 9.13 17.82 6.84C18.14 5.73 18.25 4.7 18.14 3.8C18.65 4.37 19.22 5.07 19.8 5.87C21.42 8.09 23.43 11.57 23.81 15.51C24 17.45 23.76 19.4 24.04 21.34C24.11 21.89 24.29 22.38 24.46 22.82L22.82 24.47C22.38 24.29 21.89 24.11 21.34 24.04Z" fill="#000000" fill-opacity="1.000000" fill-rule="nonzero"/>
	<path d="M7.12 15.84C8.87 15.25 10.74 14.02 12.38 12.38C14.02 10.74 15.25 8.87 15.84 7.12C16.46 5.26 16.3 3.72 15.38 2.8C13.53 0.95 9.32 2.27 5.79 5.79C5.25 6.34 4.75 6.91 4.3 7.5C4.14 7.71 4.18 8 4.39 8.16C4.59 8.32 4.89 8.28 5.04 8.07C5.47 7.51 5.95 6.97 6.46 6.46C9.51 3.41 13.29 2.04 14.71 3.46C15.36 4.11 15.45 5.33 14.95 6.82C14.4 8.44 13.26 10.17 11.72 11.72C10.17 13.26 8.44 14.4 6.82 14.95C5.33 15.45 4.11 15.36 3.46 14.71C2.58 13.83 2.75 11.96 3.9 9.83C4.02 9.6 3.94 9.32 3.71 9.19C3.48 9.07 3.2 9.15 3.08 9.38C1.7 11.93 1.59 14.17 2.8 15.38C3.35 15.93 4.13 16.21 5.06 16.21C5.68 16.21 6.37 16.09 7.12 15.84Z" fill="#000000" fill-opacity="1.000000" fill-rule="nonzero"/>
	<path d="M10.41 9.16C11.13 9.16 12.01 8.7 12.76 7.88C13.87 6.67 14.16 5.26 13.43 4.59C13.05 4.24 12.48 4.18 11.82 4.42C11.27 4.62 10.7 5.02 10.22 5.55C9.11 6.76 8.82 8.17 9.54 8.84C9.77 9.05 10.08 9.16 10.41 9.16ZM10.91 6.18C11.29 5.77 11.74 5.45 12.15 5.3C12.55 5.15 12.94 5.18 12.89 5.7C12.83 6.28 12.45 6.83 12.07 7.25C11.28 8.11 10.41 8.36 10.17 8.15C9.94 7.94 10.12 7.04 10.91 6.18Z" fill="#000000" fill-opacity="1.000000" fill-rule="nonzero"/>
</svg>
