<svg width="42.000000" height="55.263184" viewBox="0 0 42 55.2632" fill="none" xmlns="http://www.w3.org/2000/svg" xmlns:xlink="http://www.w3.org/1999/xlink">
	<desc>
			Created with Pixso.
	</desc>
	<defs/>
	<path d="M34.19 13.26C33.97 13.26 33.77 13.19 33.6 13.05C33.44 12.92 33.33 12.73 33.3 12.52C32.71 8.82 33.37 5.03 35.19 1.72L9.02 1.72C10.47 4.39 11.19 7.36 11.11 10.37C11.11 10.6 11.02 10.82 10.85 10.98C10.68 11.14 10.45 11.24 10.22 11.24C9.98 11.24 9.75 11.14 9.59 10.98C9.42 10.82 9.33 10.6 9.33 10.37C9.4 7.17 8.5 4.01 6.75 1.29C6.67 1.16 6.63 1.01 6.63 0.86C6.63 0.71 6.67 0.56 6.75 0.43C6.82 0.3 6.93 0.19 7.07 0.11C7.2 0.04 7.36 0 7.51 0L36.68 0C36.84 -0.01 36.99 0.03 37.13 0.11C37.26 0.19 37.38 0.3 37.46 0.43C37.53 0.56 37.57 0.71 37.57 0.86C37.57 1.01 37.53 1.16 37.46 1.29C35.34 4.56 34.49 8.45 35.07 12.26C35.09 12.38 35.08 12.49 35.06 12.6C35.03 12.71 34.98 12.82 34.91 12.91C34.84 13 34.75 13.08 34.65 13.13C34.55 13.19 34.44 13.23 34.32 13.25L34.19 13.26Z" fill="#FFFFFF" fill-opacity="1.000000" fill-rule="nonzero"/>
	<path d="M35.73 55.26L22.9 55.26C22.69 55.26 22.48 55.19 22.31 55.05C22.14 54.91 22.04 54.71 22 54.5C21.54 50.89 21.71 47.22 22.53 43.66C21.53 43.86 20.5 43.86 19.5 43.66C20.3 47.22 20.48 50.88 20.03 54.5C20 54.71 19.89 54.91 19.72 55.05C19.55 55.19 19.34 55.26 19.12 55.26L6.25 55.26C6.09 55.26 5.93 55.22 5.8 55.14C5.66 55.06 5.55 54.95 5.47 54.81C-3.75 38.97 0.63 29.24 4.48 20.66C4.84 19.85 5.2 19.05 5.54 18.26C5.59 18.14 5.65 18.04 5.74 17.95C5.82 17.87 5.92 17.8 6.03 17.75C6.14 17.7 6.26 17.68 6.38 17.68C6.51 17.68 6.63 17.7 6.74 17.75C6.85 17.8 6.95 17.87 7.04 17.95C7.12 18.04 7.19 18.14 7.23 18.25C7.27 18.36 7.29 18.48 7.29 18.6C7.28 18.72 7.25 18.84 7.2 18.95C6.86 19.75 6.5 20.57 6.13 21.39C2.3 29.89 -1.65 38.69 6.78 53.49L18.35 53.49C18.65 49.82 18.33 46.11 17.4 42.54C17.36 42.38 17.37 42.21 17.43 42.05C17.48 41.89 17.58 41.75 17.71 41.64C17.84 41.54 18 41.47 18.16 41.45C18.33 41.43 18.5 41.45 18.66 41.52C19.4 41.86 20.2 42.03 21.02 42.03C21.83 42.03 22.64 41.86 23.38 41.52C23.54 41.45 23.71 41.43 23.88 41.45C24.05 41.47 24.21 41.54 24.34 41.65C24.47 41.76 24.56 41.89 24.62 42.05C24.67 42.21 24.67 42.38 24.64 42.54C23.68 46.1 23.37 49.8 23.72 53.47L35.21 53.47C43.67 38.68 39.56 29.54 36.26 22.18C36.16 21.96 36.16 21.72 36.24 21.5C36.33 21.27 36.5 21.09 36.72 21C36.94 20.9 37.18 20.89 37.41 20.98C37.63 21.06 37.81 21.23 37.91 21.45C41.22 28.84 45.77 38.97 36.51 54.81C36.43 54.95 36.32 55.06 36.18 55.14C36.04 55.22 35.89 55.26 35.73 55.26Z" fill="#FFFFFF" fill-opacity="1.000000" fill-rule="nonzero"/>
	<path d="M22.11 44.21C21.05 44.21 20.01 43.99 19.05 43.55C18.9 43.49 18.77 43.38 18.68 43.24C15.19 38.02 9.84 34.42 2.85 32.5C2.64 32.44 2.45 32.31 2.34 32.12C2.22 31.93 2.18 31.71 2.22 31.49C2.54 29.99 2.98 28.52 3.54 27.08C3.62 26.87 3.78 26.7 3.99 26.61C4.19 26.51 4.43 26.5 4.65 26.57C15.96 30.32 28.21 30.32 39.53 26.57C39.75 26.5 39.98 26.51 40.19 26.6C40.4 26.7 40.56 26.87 40.64 27.08C41.2 28.52 41.65 29.99 41.98 31.49C42.02 31.71 41.98 31.94 41.86 32.13C41.75 32.32 41.56 32.45 41.34 32.51C34.27 34.42 28.96 38.03 25.52 43.24C25.43 43.37 25.3 43.48 25.15 43.55C24.2 43.98 23.16 44.21 22.11 44.21ZM20 42.07C21.35 42.6 22.86 42.6 24.2 42.07C27.74 36.84 33.05 33.11 40.12 31.06C39.92 30.19 39.65 29.37 39.34 28.45C28.16 31.97 16.14 31.97 4.96 28.45C4.65 29.32 4.39 30.19 4.18 31.06C11.09 33.11 16.43 36.81 20.02 42.07L20 42.07Z" fill="#FFFFFF" fill-opacity="1.000000" fill-rule="nonzero"/>
	<path d="M38.9 24.31L23.1 24.31C11.19 24.31 2.21 20.77 2.21 16.04L2.21 5.3C2.21 5.07 2.3 4.84 2.46 4.68C2.63 4.51 2.86 4.42 3.09 4.42C3.32 4.42 3.55 4.51 3.71 4.68C3.88 4.84 3.97 5.07 3.97 5.3C3.97 8.38 11.83 11.8 23.1 11.8L38.9 11.8C39.14 11.8 39.36 11.89 39.53 12.06C39.69 12.22 39.79 12.45 39.79 12.68L39.79 23.43C39.79 23.66 39.69 23.89 39.53 24.05C39.36 24.22 39.14 24.31 38.9 24.31ZM3.97 8.73L3.97 16.04C3.97 19.11 11.83 22.54 23.1 22.54L38.02 22.54L38.02 13.55L23.1 13.55C14.34 13.55 7.15 11.63 3.97 8.73Z" fill="#FFFFFF" fill-opacity="1.000000" fill-rule="nonzero"/>
	<path d="M32.05 24.31C31.75 24.31 31.47 24.21 31.27 24.04C31.06 23.86 30.94 23.62 30.94 23.38L30.94 18.61C30.94 18.37 31.06 18.13 31.27 17.95C31.47 17.78 31.75 17.68 32.05 17.68C32.34 17.68 32.62 17.78 32.83 17.95C33.04 18.13 33.15 18.37 33.15 18.61L33.15 23.38C33.15 23.62 33.04 23.86 32.83 24.04C32.62 24.21 32.34 24.31 32.05 24.31Z" fill="#FFFFFF" fill-opacity="1.000000" fill-rule="nonzero"/>
	<path d="M27.63 24.31C27.33 24.31 27.05 24.22 26.84 24.06C26.64 23.89 26.52 23.67 26.52 23.45L26.52 18.54C26.52 18.32 26.64 18.1 26.84 17.93C27.05 17.77 27.33 17.68 27.63 17.68C27.92 17.68 28.2 17.77 28.41 17.93C28.62 18.1 28.73 18.32 28.73 18.54L28.73 23.45C28.73 23.67 28.62 23.89 28.41 24.06C28.2 24.22 27.92 24.31 27.63 24.31Z" fill="#FFFFFF" fill-opacity="1.000000" fill-rule="nonzero"/>
	<path d="M21 24.31C20.7 24.31 20.42 24.2 20.21 23.99C20.01 23.79 19.89 23.52 19.89 23.23L19.89 16.55C19.89 16.26 20.01 15.99 20.21 15.79C20.42 15.58 20.7 15.47 21 15.47C21.29 15.47 21.57 15.58 21.78 15.79C21.98 15.99 22.1 16.26 22.1 16.55L22.1 23.23C22.1 23.52 21.98 23.79 21.78 23.99C21.57 24.2 21.29 24.31 21 24.31Z" fill="#FFFFFF" fill-opacity="1.000000" fill-rule="nonzero"/>
	<path d="M16.57 22.1C16.28 22.1 16 22.01 15.79 21.86C15.58 21.71 15.47 21.5 15.47 21.29L15.47 16.28C15.47 16.07 15.58 15.86 15.79 15.71C16 15.55 16.28 15.47 16.57 15.47C16.87 15.47 17.15 15.55 17.36 15.71C17.56 15.86 17.68 16.07 17.68 16.28L17.68 21.29C17.68 21.5 17.56 21.71 17.36 21.86C17.15 22.01 16.87 22.1 16.57 22.1Z" fill="#FFFFFF" fill-opacity="1.000000" fill-rule="nonzero"/>
	<path d="M9.94 22.1C9.65 22.1 9.37 22 9.16 21.83C8.95 21.66 8.84 21.43 8.84 21.19L8.84 16.38C8.84 16.14 8.95 15.91 9.16 15.74C9.37 15.56 9.65 15.47 9.94 15.47C10.24 15.47 10.52 15.56 10.72 15.74C10.93 15.91 11.05 16.14 11.05 16.38L11.05 21.19C11.05 21.43 10.93 21.66 10.72 21.83C10.52 22 10.24 22.1 9.94 22.1Z" fill="#FFFFFF" fill-opacity="1.000000" fill-rule="nonzero"/>
</svg>
