<svg width="50.000977" height="46.773926" viewBox="0 0 50.001 46.7739" fill="none" xmlns="http://www.w3.org/2000/svg" xmlns:xlink="http://www.w3.org/1999/xlink">
	<desc>
			Created with Pixso.
	</desc>
	<defs/>
	<path id="Vector" d="M37.9 0C35.51 0 33.17 0.7 31.18 2.03C29.19 3.36 27.64 5.25 26.72 7.46C25.81 9.67 25.57 12.11 26.04 14.45C26.5 16.8 27.65 18.95 29.35 20.65C31.04 22.34 33.19 23.49 35.54 23.96C37.89 24.42 40.32 24.18 42.53 23.27C44.74 22.35 46.63 20.8 47.96 18.81C49.29 16.82 50 14.48 50 12.09C49.99 8.88 48.72 5.81 46.45 3.54C44.18 1.27 41.11 0 37.9 0ZM37.9 22.58C35.83 22.58 33.8 21.96 32.08 20.81C30.35 19.66 29.01 18.02 28.21 16.1C27.42 14.19 27.21 12.08 27.62 10.05C28.02 8.01 29.02 6.14 30.49 4.68C31.95 3.21 33.82 2.21 35.85 1.81C37.89 1.4 40 1.61 41.91 2.41C43.83 3.2 45.46 4.54 46.62 6.27C47.77 7.99 48.38 10.02 48.38 12.09C48.38 14.87 47.27 17.54 45.31 19.5C43.34 21.47 40.68 22.57 37.9 22.58Z" fill="#FFFFFF" fill-opacity="1.000000" fill-rule="nonzero"/>
	<path id="Vector" d="M41.16 5.64C39.95 5.64 38.79 6.1 37.9 6.92C37.21 6.29 36.36 5.87 35.44 5.71C34.52 5.55 33.57 5.67 32.72 6.04C31.86 6.41 31.13 7.03 30.62 7.81C30.11 8.59 29.83 9.5 29.83 10.44C29.83 11.33 30.02 12.2 30.39 13.01C30.75 13.82 31.28 14.55 31.94 15.14L37.36 19.95C37.51 20.08 37.7 20.16 37.9 20.16C38.1 20.16 38.29 20.08 38.44 19.95L43.85 15.14C44.52 14.55 45.05 13.82 45.41 13.01C45.78 12.2 45.96 11.33 45.96 10.44C45.96 9.17 45.46 7.95 44.56 7.05C43.66 6.15 42.44 5.64 41.16 5.64ZM42.78 13.93L37.9 18.27L33.02 13.93C32.52 13.49 32.13 12.95 31.86 12.35C31.59 11.75 31.45 11.1 31.45 10.44C31.45 9.81 31.63 9.19 31.98 8.67C32.33 8.14 32.83 7.74 33.41 7.5C34 7.25 34.64 7.19 35.25 7.31C35.87 7.44 36.44 7.74 36.89 8.19L37.33 8.63C37.48 8.78 37.69 8.87 37.9 8.87C38.11 8.87 38.32 8.78 38.47 8.63L38.91 8.19C39.36 7.74 39.93 7.44 40.54 7.31C41.16 7.19 41.8 7.25 42.38 7.5C42.97 7.74 43.46 8.14 43.81 8.67C44.16 9.19 44.35 9.81 44.35 10.44C44.35 11.1 44.21 11.75 43.94 12.35C43.67 12.95 43.28 13.49 42.78 13.93Z" fill="#FFFFFF" fill-opacity="1.000000" fill-rule="nonzero"/>
	<path id="Vector" d="M0.8 46.77L8.87 46.77C9.08 46.77 9.29 46.68 9.44 46.53C9.59 46.38 9.67 46.18 9.67 45.96L26.61 45.96C27.62 45.96 28.59 45.58 29.34 44.9C30.08 44.21 30.54 43.27 30.63 42.27C31.68 41.11 32.26 39.6 32.25 38.04L32.25 37.43L32.54 37.14C32.96 36.72 33.3 36.22 33.52 35.67C33.75 35.12 33.87 34.53 33.87 33.94C33.86 33.24 33.7 32.54 33.39 31.91L33.15 31.44C33.62 30.36 33.86 29.2 33.87 28.03L33.87 27.91C33.87 27.14 33.56 26.4 33.01 25.85C32.46 25.3 31.72 25 30.95 25L23.07 25C22.99 25 22.9 24.97 22.83 24.93C22.75 24.89 22.69 24.83 22.65 24.76C22.6 24.68 22.58 24.6 22.57 24.52C22.57 24.43 22.59 24.35 22.63 24.27L23.33 22.87C24.42 20.68 24.99 18.26 25 15.82C25 15.04 24.69 14.3 24.14 13.75C23.59 13.21 22.85 12.9 22.08 12.9L20.96 12.9C20.32 12.9 19.71 13.15 19.25 13.61C18.8 14.06 18.54 14.68 18.54 15.32C18.55 16.24 18.37 17.14 18.02 17.99C17.66 18.84 17.15 19.61 16.5 20.25L14.22 22.53C12.89 23.87 11.88 25.49 11.29 27.28C11.16 27.66 10.94 28.01 10.66 28.29C10.38 28.57 10.03 28.78 9.65 28.9C9.62 28.72 9.53 28.54 9.38 28.42C9.24 28.29 9.06 28.22 8.87 28.22L0.8 28.22C0.59 28.22 0.38 28.31 0.23 28.46C0.08 28.61 0 28.81 0 29.03L0 45.96C0 46.18 0.08 46.38 0.23 46.53C0.38 46.68 0.59 46.77 0.8 46.77ZM12.82 27.79C13.34 26.24 14.21 24.83 15.37 23.67L17.64 21.39C18.44 20.6 19.08 19.65 19.51 18.61C19.94 17.57 20.16 16.45 20.16 15.32C20.16 15.1 20.24 14.9 20.39 14.75C20.54 14.6 20.75 14.51 20.96 14.51L22.08 14.51C22.42 14.51 22.75 14.65 23 14.89C23.24 15.14 23.38 15.47 23.38 15.82C23.38 18.01 22.87 20.18 21.89 22.15L21.19 23.55C21.02 23.87 20.95 24.23 20.96 24.59C20.98 24.95 21.09 25.3 21.28 25.61C21.47 25.91 21.73 26.16 22.05 26.34C22.36 26.52 22.71 26.61 23.07 26.61L30.95 26.61C31.15 26.61 31.35 26.66 31.53 26.75C31.75 26.85 31.93 27.02 32.06 27.23C32.19 27.43 32.25 27.67 32.25 27.91L32.25 28.03C32.25 29.09 32 30.14 31.53 31.09C31.47 31.2 31.44 31.32 31.44 31.45C31.44 31.57 31.47 31.7 31.53 31.81L31.94 32.63C32.14 33.04 32.25 33.49 32.25 33.94C32.25 34.32 32.18 34.7 32.03 35.05C31.89 35.41 31.67 35.73 31.4 36L30.88 36.52C30.72 36.67 30.64 36.88 30.64 37.09L30.64 38.04C30.64 38.65 30.52 39.27 30.29 39.84C30.05 40.41 29.7 40.92 29.26 41.36C29.11 41.51 29.03 41.72 29.03 41.93C29.03 42.57 28.77 43.19 28.32 43.64C27.86 44.09 27.25 44.35 26.61 44.35L9.67 44.35L9.67 30.55C10.39 30.41 11.07 30.08 11.62 29.6C12.17 29.11 12.58 28.49 12.82 27.79ZM1.61 29.83L8.06 29.83L8.06 45.16L1.61 45.16L1.61 29.83Z" fill="#FFFFFF" fill-opacity="1.000000" fill-rule="nonzero"/>
</svg>
