<svg width="52.000000" height="49.000000" viewBox="0 0 52 49" fill="none" xmlns="http://www.w3.org/2000/svg" xmlns:xlink="http://www.w3.org/1999/xlink">
	<desc>
			Created with Pixso.
	</desc>
	<defs/>
	<path d="M47.76 38.58L47.2 38.45C52.68 33.94 53.85 23.92 48.68 18.7C46.7 16.69 45.51 13.51 45.51 10.2C45.51 5.39 42.36 1.48 38.49 1.48C34.63 1.48 31.48 5.39 31.48 10.2C31.48 11.29 31.35 12.36 31.11 13.39C27.5 9.21 21.78 8.73 17.95 11.4L17.95 1.6C17.95 1.17 17.61 0.83 17.18 0.83C16.76 0.83 16.42 1.17 16.42 1.6L16.42 4.62C14.13 0.47 9.97 -0.63 5.3 0.31C4.83 0.4 4.57 0.91 4.75 1.36C4.79 1.46 5.82 3.96 7.82 6.15C10.17 8.73 13.1 10.02 16.42 9.1L16.42 11.4C11.92 8.26 4.39 9.39 1.29 16.55C1.12 16.94 1.3 17.39 1.69 17.56C2.08 17.73 2.53 17.55 2.7 17.16C5.53 10.61 12.3 10.08 15.89 12.92C16.64 13.55 17.73 13.55 18.48 12.92C22.56 9.69 29.64 11.1 32.06 18.17C33.37 21.99 33.11 25.97 30.84 30.1C29.94 31.71 29.2 33.06 28.59 34.18C23.85 33.15 23.17 32.78 21.56 32.81C21.13 32.82 20.8 33.17 20.81 33.6C20.82 34.02 21.16 34.36 21.59 34.35C21.87 34.34 22.18 34.36 22.51 34.4L22.06 38.54C22.01 38.97 22.31 39.35 22.73 39.39C23.15 39.44 23.53 39.13 23.58 38.71L24.02 34.71C27.08 35.41 29.07 35.87 31.45 36.41L31.23 38.39C31.18 38.81 31.48 39.19 31.9 39.24C32.33 39.28 32.7 38.98 32.75 38.56L32.95 36.76C33.42 36.86 44.3 39.36 44.43 39.39L43.84 44.73C43.79 45.15 44.1 45.53 44.52 45.58C44.94 45.62 45.32 45.32 45.36 44.9L45.94 39.74L47.42 40.08C49.27 40.5 50.48 42.22 50.27 44.11C50.06 45.98 48.49 47.4 46.61 47.41L38.77 47.42L39.04 44.91C39.09 44.49 38.79 44.11 38.37 44.06C37.95 44.02 37.57 44.32 37.52 44.74L37.22 47.43L29.71 47.44L29.97 45.08C30.02 44.66 29.72 44.28 29.29 44.23C28.88 44.18 28.5 44.49 28.45 44.91C28.38 45.5 28.17 47.38 28.17 47.44L24.57 47.45L25.03 43.34C25.07 42.92 24.77 42.54 24.35 42.49C23.93 42.45 23.55 42.75 23.5 43.17L23.03 47.45C23.02 47.45 23.01 47.45 23.01 47.45L23.01 47.45L23.01 47.45L23 47.45C22.95 47.45 22.71 47.45 21.73 47.46C18.73 47.46 16.15 45.4 15.41 42.55C14.66 39.64 15.98 36.39 18.94 34.98C19.32 34.8 19.49 34.34 19.31 33.95C19.12 33.57 18.67 33.41 18.29 33.59C16.79 34.3 15.59 35.42 14.79 36.8C13.24 36.02 11.46 34.8 10.52 33C9.29 30.67 5.77 31.54 5.76 34.17L3.36 29.79C1.71 26.79 1.11 23.42 1.82 19.94C1.91 19.52 1.64 19.12 1.23 19.03C0.81 18.94 0.41 19.21 0.32 19.63C-0.44 23.36 0.14 27.11 2.01 30.53L5.29 36.51L2.89 36.24C1.5 36.09 0.25 37.09 0.1 38.48C-0.06 39.87 0.94 41.13 2.33 41.29L6.3 41.73C5.31 42.61 4.52 43.42 4.62 44.68C4.79 46.92 7.6 47.85 9.06 46.13C10.26 44.72 12.15 43.84 14.06 43.37C15.09 46.63 18.14 49 21.73 49C22.9 48.99 45.2 48.95 46.61 48.95C49.5 48.94 51.83 46.58 51.83 43.69C51.83 41.23 50.16 39.13 47.76 38.58ZM6.58 1.65C11.68 0.95 14.89 3.39 15.96 7.63C11.81 8.75 8.55 5.46 6.58 1.65ZM45.2 37.99L30.15 34.53C30.59 33.73 31.07 32.85 31.61 31.88C33.03 34.33 35.67 35.99 38.69 35.99C42.58 35.99 45.96 33.21 46.72 29.39C46.8 28.97 46.53 28.57 46.12 28.48C45.7 28.4 45.3 28.67 45.22 29.09C44.6 32.19 41.85 34.45 38.69 34.45C35.89 34.45 33.49 32.71 32.51 30.24C33.79 27.81 34.39 25.24 34.37 22.69C38.22 19.38 44.14 21.47 45.19 26.34C45.28 26.76 45.69 27.02 46.11 26.93C46.52 26.84 46.78 26.43 46.69 26.02C46.3 24.21 45.3 22.57 43.86 21.39C41.14 19.16 37.25 18.91 34.25 20.86C34 18.84 33.33 16.73 32.26 14.98C32.75 13.49 33.01 11.87 33.01 10.2C33.01 6.65 35.21 3.02 38.49 3.02C41.74 3.02 43.98 6.6 43.98 10.2C43.98 13.96 45.3 17.46 47.6 19.78C51.59 23.81 51.2 31.29 47.74 35.7C46.98 36.66 46.13 37.43 45.2 37.99ZM13.73 41.86C11.55 42.39 9.34 43.44 7.9 45.13C7.54 45.55 6.91 45.6 6.49 45.24C6.08 44.88 6.03 44.25 6.38 43.84C7.05 43.05 7.85 42.37 8.7 41.82C9.3 41.43 9.08 40.49 8.37 40.41C7.7 40.34 3 39.81 2.5 39.75C1.95 39.69 1.56 39.2 1.62 38.65C1.68 38.11 2.16 37.71 2.72 37.77C2.72 37.77 2.72 37.77 2.73 37.77L2.72 37.77C2.73 37.77 2.73 37.77 2.74 37.77L2.74 37.77C2.75 37.77 2.75 37.77 2.76 37.77C2.75 37.77 2.75 37.77 2.75 37.77C2.9 37.79 3.82 37.89 8.05 38.37C8.3 38.35 9.04 38.67 9.36 38C9.5 37.71 9.45 37.36 9.22 37.12C8.48 36.36 7.87 35.53 7.4 34.65C7.15 34.16 7.33 33.56 7.82 33.3L7.82 33.3C8.31 33.04 8.91 33.23 9.16 33.72C10.29 35.86 12.36 37.29 14.14 38.18C13.74 39.34 13.58 40.62 13.73 41.86Z" fill="#FFFFFF" fill-opacity="1.000000" fill-rule="nonzero"/>
</svg>
