<svg width="45.000000" height="45.000000" viewBox="0 0 45 45" fill="none" xmlns="http://www.w3.org/2000/svg" xmlns:xlink="http://www.w3.org/1999/xlink">
	<desc>
			Created with Pixso.
	</desc>
	<defs>
		<clipPath id="clip55_567">
			<rect id="free-icon-healthy-food-1147883 (1)" width="45.000000" height="45.000000" fill="white" fill-opacity="0"/>
		</clipPath>
	</defs>
	<rect id="free-icon-healthy-food-1147883 (1)" width="45.000000" height="45.000000" fill="#FFFFFF" fill-opacity="0"/>
	<g clip-path="url(#clip55_567)">
		<path id="Vector" d="M41.33 34.64L40.84 34.53C45.59 30.64 46.6 22.01 42.13 17.51C40.41 15.78 39.38 13.05 39.38 10.19C39.38 6.05 36.66 2.68 33.31 2.68C29.96 2.68 27.24 6.05 27.24 10.19C27.24 11.13 27.13 12.06 26.92 12.94C23.8 9.34 18.85 8.93 15.53 11.23L15.53 2.78C15.53 2.42 15.24 2.12 14.87 2.12C14.5 2.12 14.21 2.42 14.21 2.78L14.21 5.39C12.23 1.81 8.62 0.86 4.59 1.67C4.18 1.75 3.95 2.19 4.11 2.57C4.14 2.66 5.04 4.82 6.76 6.7C8.8 8.93 11.34 10.04 14.21 9.24L14.21 11.23C10.31 8.52 3.79 9.49 1.12 15.66C0.97 16 1.12 16.39 1.46 16.53C1.8 16.68 2.19 16.53 2.33 16.19C4.78 10.55 10.64 10.09 13.75 12.54C14.4 13.08 15.34 13.08 15.99 12.54C19.53 9.75 25.65 10.96 27.75 17.06C28.87 20.35 28.65 23.78 26.69 27.34C25.91 28.73 25.27 29.89 24.74 30.85C20.64 29.97 20.05 29.64 18.65 29.67C18.29 29.68 18 29.98 18.01 30.35C18.01 30.72 18.31 31.01 18.68 31C18.92 30.99 19.2 31 19.48 31.04L19.09 34.61C19.04 34.97 19.31 35.3 19.67 35.34C20.04 35.38 20.36 35.12 20.4 34.76L20.79 31.31C23.44 31.91 25.16 32.3 27.21 32.77L27.02 34.48C26.98 34.84 27.25 35.17 27.61 35.21C27.97 35.25 28.3 34.99 28.34 34.62L28.51 33.07C28.92 33.16 38.33 35.31 38.45 35.34L37.94 39.94C37.9 40.3 38.16 40.63 38.52 40.67C38.89 40.71 39.22 40.45 39.26 40.08L39.75 35.64L41.04 35.93C42.63 36.3 43.69 37.78 43.5 39.4C43.32 41.02 41.96 42.24 40.33 42.25L33.55 42.26L33.79 40.1C33.83 39.74 33.57 39.41 33.2 39.37C32.84 39.33 32.51 39.59 32.47 39.95L32.21 42.26L25.71 42.28L25.94 40.24C25.98 39.88 25.71 39.55 25.35 39.51C24.99 39.47 24.66 39.73 24.62 40.1C24.56 40.6 24.38 42.23 24.38 42.28L21.26 42.28L21.66 38.75C21.7 38.38 21.43 38.06 21.07 38.02C20.71 37.97 20.38 38.24 20.34 38.6L19.93 42.29C19.92 42.29 19.92 42.29 19.91 42.29C19.91 42.29 19.91 42.29 19.91 42.29C19.91 42.29 19.91 42.29 19.91 42.29C19.91 42.29 19.91 42.29 19.91 42.29C19.91 42.29 19.91 42.29 19.9 42.29C19.86 42.29 19.65 42.29 18.81 42.29C16.2 42.29 13.97 40.51 13.34 38.06C12.69 35.56 13.83 32.76 16.39 31.54C16.72 31.38 16.86 30.99 16.71 30.66C16.55 30.33 16.15 30.19 15.82 30.34C14.53 30.96 13.49 31.92 12.79 33.11C11.45 32.44 9.92 31.38 9.1 29.83C8.04 27.82 4.99 28.58 4.98 30.85L2.9 27.07C1.48 24.48 0.96 21.58 1.58 18.58C1.65 18.23 1.42 17.87 1.06 17.8C0.7 17.73 0.35 17.96 0.28 18.32C-0.38 21.53 0.12 24.76 1.74 27.71L4.57 32.86L2.5 32.63C1.3 32.49 0.22 33.36 0.08 34.56C-0.05 35.76 0.82 36.84 2.01 36.97L5.45 37.36C4.6 38.12 3.91 38.81 4 39.9C4.15 41.83 6.57 42.63 7.84 41.15C8.88 39.93 10.51 39.18 12.16 38.77C13.06 41.58 15.7 43.62 18.81 43.62C19.82 43.61 39.11 43.58 40.33 43.57C42.84 43.57 44.85 41.54 44.85 39.05C44.85 36.93 43.4 35.11 41.33 34.64ZM5.7 2.83C10.1 2.23 12.88 4.33 13.81 7.98C10.22 8.94 7.4 6.11 5.7 2.83ZM39.11 34.13L26.09 31.16C26.47 30.47 26.89 29.71 27.35 28.87C28.58 30.99 30.87 32.41 33.48 32.41C36.85 32.41 39.77 30.02 40.43 26.72C40.5 26.36 40.27 26.02 39.91 25.94C39.55 25.87 39.2 26.1 39.13 26.46C38.59 29.14 36.22 31.08 33.48 31.08C31.06 31.08 28.98 29.58 28.13 27.46C29.24 25.36 29.76 23.15 29.75 20.95C33.07 18.11 38.2 19.9 39.11 24.1C39.19 24.46 39.54 24.69 39.9 24.61C40.26 24.53 40.48 24.18 40.41 23.82C40.07 22.26 39.2 20.85 37.96 19.84C35.6 17.91 32.23 17.7 29.64 19.38C29.42 17.64 28.84 15.82 27.92 14.31C28.34 13.03 28.57 11.63 28.57 10.19C28.57 7.13 30.47 4.01 33.31 4.01C36.12 4.01 38.06 7.09 38.06 10.19C38.06 13.44 39.2 16.44 41.19 18.45C44.64 21.92 44.31 28.37 41.31 32.16C40.66 32.99 39.92 33.65 39.11 34.13ZM11.88 37.46C9.99 37.92 8.08 38.83 6.83 40.29C6.52 40.65 5.98 40.69 5.62 40.38C5.26 40.07 5.21 39.53 5.52 39.17C6.1 38.5 6.79 37.91 7.53 37.44C8.05 37.1 7.86 36.29 7.24 36.22C6.67 36.16 2.59 35.7 2.16 35.65C1.69 35.6 1.35 35.18 1.4 34.71C1.45 34.24 1.87 33.89 2.35 33.94C2.35 33.95 2.36 33.95 2.36 33.95C2.36 33.95 2.36 33.95 2.36 33.95C2.36 33.95 2.36 33.95 2.37 33.95C2.37 33.95 2.37 33.95 2.37 33.95C2.38 33.95 2.38 33.95 2.39 33.95C2.38 33.95 2.38 33.95 2.38 33.95C2.51 33.96 3.3 34.05 6.97 34.46C7.18 34.45 7.82 34.72 8.1 34.14C8.22 33.89 8.17 33.59 7.98 33.39C7.33 32.73 6.81 32.01 6.41 31.26C6.18 30.84 6.35 30.31 6.76 30.09L6.77 30.09C7.19 29.87 7.7 30.03 7.93 30.45C8.9 32.3 10.7 33.53 12.24 34.3C11.89 35.29 11.75 36.4 11.88 37.46Z" fill="#000000" fill-opacity="1.000000" fill-rule="nonzero"/>
	</g>
</svg>
