<svg width="20.000000" height="18.000000" viewBox="0 0 20 18" fill="none" xmlns="http://www.w3.org/2000/svg" xmlns:xlink="http://www.w3.org/1999/xlink">
	<desc>
			Created with Pixso.
	</desc>
	<defs/>
	<path id="Vector" d="M19.49 0.35C19.28 0.17 19.03 0.06 18.77 0.02C18.5 -0.03 18.23 0 17.98 0.1L0.93 6.75C0.64 6.86 0.38 7.07 0.21 7.34C0.05 7.61 -0.03 7.93 0 8.25C0.03 8.56 0.16 8.86 0.37 9.1C0.59 9.34 0.87 9.5 1.18 9.56L5.51 10.41L5.51 15.79C5.51 16.08 5.6 16.37 5.76 16.61C5.93 16.85 6.16 17.04 6.43 17.15C6.61 17.22 6.8 17.26 6.99 17.26C7.19 17.26 7.38 17.22 7.56 17.15C7.74 17.08 7.9 16.97 8.04 16.83L10.44 14.45L14.07 17.63C14.33 17.86 14.68 17.99 15.04 17.99C15.19 18 15.35 17.97 15.5 17.92C15.74 17.84 15.96 17.71 16.13 17.52C16.31 17.33 16.43 17.1 16.48 16.86L19.96 1.79C20.02 1.53 20.01 1.25 19.92 1C19.84 0.75 19.69 0.52 19.49 0.35ZM6.08 9.03L1.48 8.12L14.37 3.08L6.08 9.03ZM6.99 15.79L6.99 11.44L9.32 13.48L6.99 15.79ZM15.04 16.53L7.44 9.87L18.4 2.01L15.04 16.53Z" fill="#FFFFFF" fill-opacity="1.000000" fill-rule="nonzero"/>
</svg>
