<svg width="8.316406" height="13.150391" viewBox="0 0 8.31641 13.1504" fill="none" xmlns="http://www.w3.org/2000/svg" xmlns:xlink="http://www.w3.org/1999/xlink">
	<desc>
			Created with Pixso.
	</desc>
	<defs/>
	<path id="Combined Shape" d="M4.1582 0C6.45508 0 8.31641 1.8335 8.31641 4.09521Q8.31641 4.87305 7.8252 5.97217L7.7168 6.20752C7.58301 6.48584 7.42773 6.77832 7.24902 7.08594L7.0918 7.35303C7.06445 7.39795 7.03711 7.44336 7.00879 7.48926L6.83398 7.76709C6.80469 7.81396 6.77344 7.86084 6.74316 7.90869L6.55273 8.19678L6.35059 8.49268C6.31641 8.54248 6.28125 8.59277 6.24609 8.64307L6.02832 8.94922C5.99121 9.00098 5.95312 9.05273 5.91504 9.10498L5.68066 9.42236L5.43652 9.74609C5.39453 9.80078 5.35254 9.85596 5.30957 9.91113L5.04785 10.2456C4.95898 10.3584 4.86816 10.4727 4.77539 10.5879C4.74023 10.6323 4.69922 10.6729 4.6543 10.709C4.33105 10.9692 3.86426 10.9331 3.58398 10.6367L3.54102 10.5879L3.40332 10.416L3.13672 10.0776C3.0498 9.96582 2.96387 9.85547 2.88086 9.74609L2.63574 9.42236L2.40137 9.10498C2.36328 9.05273 2.32617 9.00098 2.28809 8.94922L2.07031 8.64307C2.03516 8.59277 2 8.54248 1.96582 8.49268L1.76465 8.19678L1.57422 7.90869C1.54297 7.86084 1.5127 7.81396 1.48242 7.76709L1.30859 7.48926C1.28027 7.44336 1.25293 7.39795 1.22559 7.35303L1.06738 7.08594C0.889648 6.77832 0.733398 6.48584 0.600586 6.20752L0.491211 5.97217Q0 4.87305 0 4.09521C0 1.8335 1.86133 0 4.1582 0ZM0.59375 4.0957C0.59375 2.16406 2.1875 0.594238 4.1582 0.594238C6.12891 0.594238 7.72266 2.16406 7.72266 4.0957C7.72266 4.68945 7.45117 5.49023 6.90527 6.48682L6.76855 6.72949C6.72168 6.81201 6.67285 6.89502 6.62207 6.97998L6.46484 7.23779L6.29688 7.50293L6.11914 7.77539C6.08887 7.82129 6.05762 7.86768 6.02637 7.91406L5.83203 8.19775L5.62695 8.48828C5.5918 8.5376 5.55664 8.58691 5.52051 8.63672L5.30078 8.93799L5.06934 9.24707L4.82715 9.5625L4.5752 9.88574L4.3125 10.2158C4.30371 10.2271 4.29297 10.2368 4.28223 10.2461C4.19727 10.3145 4.07227 10.3008 4.00391 10.2158L3.86719 10.0449L3.60938 9.71875C3.56738 9.66504 3.52637 9.61133 3.48535 9.55811L3.24414 9.24268L3.0127 8.93408C2.97559 8.8833 2.93848 8.83301 2.90137 8.78271L2.68652 8.48486L2.48242 8.19434C2.44922 8.14648 2.41602 8.09912 2.38379 8.05176L2.19531 7.77246L2.0166 7.5C1.93066 7.36572 1.84863 7.23438 1.76953 7.10547L1.61816 6.85156C1.59375 6.80957 1.56934 6.76855 1.5459 6.72754L1.41016 6.48486L1.28418 6.24951C0.823242 5.3623 0.59375 4.64111 0.59375 4.0957ZM4.1582 2.646C4.99316 2.646 5.6709 3.32275 5.6709 4.1582C5.6709 4.99316 4.99316 5.67041 4.1582 5.67041C3.32324 5.67041 2.64648 4.99316 2.64648 4.1582C2.64648 3.32275 3.32324 2.646 4.1582 2.646ZM4.1582 3.24023C3.65137 3.24023 3.24023 3.65137 3.24023 4.1582C3.24023 4.66553 3.65137 5.07617 4.1582 5.07617C4.66504 5.07617 5.07617 4.66553 5.07617 4.1582C5.07617 3.65137 4.66504 3.24023 4.1582 3.24023ZM4.25293 12.0156C4.96387 12.0156 5.625 11.8174 6.05176 11.4771C6.35742 11.2334 6.53418 10.9238 6.53418 10.5845C6.53418 10.4204 6.40137 10.2876 6.2373 10.2876C6.08691 10.2876 5.96289 10.3994 5.94336 10.5444L5.94043 10.5845C5.94043 10.7256 5.85547 10.8735 5.68164 11.0122C5.36816 11.2627 4.83789 11.4219 4.25293 11.4219C3.67383 11.4219 3.14746 11.2656 2.83203 11.019C2.67285 10.894 2.58594 10.7612 2.56836 10.6328L2.56543 10.5845C2.56543 10.4204 2.43262 10.2876 2.26855 10.2876C2.10449 10.2876 1.9707 10.4204 1.9707 10.5845C1.9707 10.9287 2.15332 11.2422 2.46582 11.4868C2.89355 11.8213 3.54883 12.0156 4.25293 12.0156ZM7.27637 12.3003C6.56738 12.8345 5.45508 13.1504 4.25293 13.1504C3.0625 13.1504 1.96094 12.8408 1.25098 12.3159C0.74707 11.9434 0.458984 11.4741 0.458984 10.9629C0.458984 10.7988 0.591797 10.666 0.755859 10.666C0.919922 10.666 1.05371 10.7988 1.05371 10.9629C1.05371 11.2646 1.24023 11.5688 1.60449 11.8384C2.20312 12.2817 3.18262 12.5562 4.25293 12.5562C5.33398 12.5562 6.32129 12.2759 6.91797 11.8262C7.27148 11.5596 7.45312 11.2598 7.45312 10.9629C7.45312 10.7988 7.58594 10.666 7.75 10.666C7.91406 10.666 8.04688 10.7988 8.04688 10.9629C8.04688 11.4668 7.7666 11.9302 7.27637 12.3003Z" clip-rule="evenodd" fill="#FFFFFF" fill-opacity="1.000000" fill-rule="evenodd"/>
</svg>
