<svg width="11.875000" height="9.375000" viewBox="0 0 11.875 9.375" fill="none" xmlns="http://www.w3.org/2000/svg" xmlns:xlink="http://www.w3.org/1999/xlink">
	<desc>
			Created with Pixso.
	</desc>
	<defs/>
	<path id="Vector" d="M1.87 0L10 0C10.49 0 10.97 0.19 11.32 0.54C11.67 0.9 11.87 1.37 11.87 1.87L11.87 7.5C11.87 7.99 11.67 8.47 11.32 8.82C10.97 9.17 10.49 9.37 10 9.37L1.87 9.37C1.37 9.37 0.9 9.17 0.54 8.82C0.19 8.47 0 7.99 0 7.5L0 1.87C0 1.37 0.19 0.9 0.54 0.54C0.9 0.19 1.37 0 1.87 0ZM1.87 0.62C1.56 0.62 1.28 0.73 1.07 0.91L5.93 4.06L10.79 0.91C10.58 0.73 10.31 0.62 10 0.62L1.87 0.62ZM5.93 4.81L0.7 1.42C0.65 1.56 0.62 1.71 0.62 1.87L0.62 7.5C0.62 7.83 0.75 8.14 0.99 8.38C1.22 8.61 1.54 8.75 1.87 8.75L10 8.75C10.33 8.75 10.64 8.61 10.88 8.38C11.11 8.14 11.25 7.83 11.25 7.5L11.25 1.87C11.25 1.71 11.21 1.56 11.16 1.42L5.93 4.81Z" fill="#FFFFFF" fill-opacity="1.000000" fill-rule="nonzero"/>
</svg>
