<svg width="54.000000" height="41.687500" viewBox="0 0 54 41.6875" fill="none" xmlns="http://www.w3.org/2000/svg" xmlns:xlink="http://www.w3.org/1999/xlink">
	<desc>
			Created with Pixso.
	</desc>
	<defs/>
	<path id="Vector" d="M18.89 41.68L2.68 41.68C1.2 41.68 0 40.48 0 39L0 4.73C0 3.25 1.2 2.05 2.68 2.05L16.84 2.05C17.19 2.05 17.47 2.33 17.47 2.68C17.47 3.03 17.19 3.31 16.84 3.31L2.68 3.31C1.9 3.31 1.26 3.95 1.26 4.73L1.26 39C1.26 39.78 1.9 40.42 2.68 40.42L18.89 40.42C19.67 40.42 20.31 39.78 20.31 39C20.31 38.65 20.59 38.36 20.94 38.36C21.29 38.36 21.58 38.65 21.58 39C21.58 40.48 20.37 41.68 18.89 41.68Z" fill="#FFFFFF" fill-opacity="1.000000" fill-rule="evenodd"/>
	<path id="Vector" d="M35.1 39.63L18.89 39.63C17.41 39.63 16.21 38.43 16.21 36.95L16.21 2.68C16.21 1.2 17.41 0 18.89 0L35.1 0C36.58 0 37.79 1.2 37.79 2.68L37.79 36.95C37.79 38.43 36.58 39.63 35.1 39.63ZM18.89 1.26C18.11 1.26 17.47 1.9 17.47 2.68L17.47 36.95C17.47 37.73 18.11 38.37 18.89 38.37L35.1 38.37C35.88 38.37 36.52 37.73 36.52 36.95L36.52 2.68C36.52 1.9 35.88 1.26 35.1 1.26L18.89 1.26Z" fill="#FFFFFF" fill-opacity="1.000000" fill-rule="evenodd"/>
	<path id="Vector" d="M51.31 41.68L35.1 41.68C33.62 41.68 32.41 40.48 32.41 39C32.41 38.65 32.7 38.37 33.05 38.37C33.4 38.37 33.68 38.65 33.68 39C33.68 39.78 34.32 40.42 35.1 40.42L51.31 40.42C52.09 40.42 52.73 39.78 52.73 39L52.73 4.73C52.73 3.95 52.09 3.31 51.31 3.31L37.15 3.31C36.8 3.31 36.52 3.03 36.52 2.68C36.52 2.33 36.8 2.05 37.15 2.05L51.31 2.05C52.79 2.05 54 3.25 54 4.73L54 39C54 40.48 52.79 41.68 51.31 41.68Z" fill="#FFFFFF" fill-opacity="1.000000" fill-rule="evenodd"/>
	<path id="Vector" d="M8.73 17.68C6.94 17.68 5.48 16.22 5.48 14.43C5.48 14.08 5.77 13.8 6.12 13.8C6.47 13.8 6.75 14.08 6.75 14.43C6.75 15.52 7.64 16.41 8.73 16.41C9.83 16.41 10.72 15.52 10.72 14.43C10.72 13.34 9.83 12.45 8.73 12.45C6.94 12.45 5.48 10.99 5.48 9.2C5.48 7.41 6.94 5.95 8.73 5.95C10.52 5.95 11.98 7.41 11.98 9.2C11.98 9.55 11.7 9.83 11.35 9.83C11 9.83 10.72 9.55 10.72 9.2C10.72 8.1 9.83 7.22 8.73 7.22C7.64 7.22 6.75 8.1 6.75 9.2C6.75 10.29 7.64 11.18 8.73 11.18C10.52 11.18 11.98 12.64 11.98 14.43C11.98 16.22 10.52 17.68 8.73 17.68Z" fill="#FFFFFF" fill-opacity="1.000000" fill-rule="evenodd"/>
	<path id="Vector" d="M13.2 20.67L4.27 20.67C3.92 20.67 3.64 20.39 3.64 20.04C3.64 19.69 3.92 19.4 4.27 19.4L13.2 19.4C13.55 19.4 13.83 19.69 13.83 20.04C13.83 20.39 13.55 20.67 13.2 20.67Z" fill="#FFFFFF" fill-opacity="1.000000" fill-rule="evenodd"/>
	<path id="Vector" d="M13.2 26.52L4.27 26.52C3.92 26.52 3.64 26.23 3.64 25.89C3.64 25.54 3.92 25.25 4.27 25.25L13.2 25.25C13.55 25.25 13.83 25.54 13.83 25.89C13.83 26.23 13.55 26.52 13.2 26.52Z" fill="#FFFFFF" fill-opacity="1.000000" fill-rule="evenodd"/>
	<path id="Vector" d="M13.2 32.37L4.27 32.37C3.92 32.37 3.64 32.08 3.64 31.73C3.64 31.38 3.92 31.1 4.27 31.1L13.2 31.1C13.55 31.1 13.83 31.38 13.83 31.73C13.83 32.08 13.55 32.37 13.2 32.37Z" fill="#FFFFFF" fill-opacity="1.000000" fill-rule="evenodd"/>
	<path id="Vector" d="M13.61 37.78L3.86 37.78C3.51 37.78 3.23 37.5 3.23 37.15L3.23 34.74C3.23 34.39 3.51 34.1 3.86 34.1L13.61 34.1C13.96 34.1 14.24 34.39 14.24 34.74L14.24 37.15C14.24 37.5 13.96 37.78 13.61 37.78ZM4.49 36.51L12.97 36.51L12.97 35.37L4.49 35.37L4.49 36.51Z" fill="#FFFFFF" fill-opacity="1.000000" fill-rule="evenodd"/>
	<path id="Vector" d="M45.26 17.68C43.47 17.68 42.01 16.22 42.01 14.43C42.01 14.08 42.29 13.8 42.64 13.8C42.99 13.8 43.27 14.08 43.27 14.43C43.27 15.52 44.16 16.41 45.26 16.41C46.35 16.41 47.24 15.52 47.24 14.43C47.24 13.34 46.35 12.45 45.26 12.45C43.47 12.45 42.01 10.99 42.01 9.2C42.01 7.41 43.47 5.95 45.26 5.95C47.05 5.95 48.51 7.41 48.51 9.2C48.51 9.55 48.22 9.83 47.87 9.83C47.52 9.83 47.24 9.55 47.24 9.2C47.24 8.1 46.35 7.22 45.26 7.22C44.16 7.22 43.27 8.1 43.27 9.2C43.27 10.29 44.16 11.18 45.26 11.18C47.05 11.18 48.51 12.64 48.51 14.43C48.51 16.22 47.05 17.68 45.26 17.68Z" fill="#FFFFFF" fill-opacity="1.000000" fill-rule="evenodd"/>
	<path id="Vector" d="M49.72 20.68L40.79 20.68C40.45 20.68 40.16 20.39 40.16 20.04C40.16 19.69 40.45 19.41 40.79 19.41L49.72 19.41C50.07 19.41 50.35 19.69 50.35 20.04C50.35 20.39 50.07 20.68 49.72 20.68Z" fill="#FFFFFF" fill-opacity="1.000000" fill-rule="evenodd"/>
	<path id="Vector" d="M49.72 26.52L40.79 26.52C40.45 26.52 40.16 26.24 40.16 25.89C40.16 25.54 40.45 25.26 40.79 25.26L49.72 25.26C50.07 25.26 50.35 25.54 50.35 25.89C50.35 26.24 50.07 26.52 49.72 26.52Z" fill="#FFFFFF" fill-opacity="1.000000" fill-rule="evenodd"/>
	<path id="Vector" d="M49.72 32.37L40.79 32.37C40.45 32.37 40.16 32.09 40.16 31.74C40.16 31.39 40.45 31.11 40.79 31.11L49.72 31.11C50.07 31.11 50.35 31.39 50.35 31.74C50.35 32.09 50.07 32.37 49.72 32.37Z" fill="#FFFFFF" fill-opacity="1.000000" fill-rule="evenodd"/>
	<path id="Vector" d="M50.13 37.78L40.38 37.78C40.04 37.78 39.75 37.5 39.75 37.15L39.75 34.74C39.75 34.39 40.04 34.1 40.38 34.1L50.13 34.1C50.48 34.1 50.76 34.39 50.76 34.74L50.76 37.15C50.76 37.5 50.48 37.78 50.13 37.78ZM41.02 36.51L49.5 36.51L49.5 35.37L41.02 35.37L41.02 36.51Z" fill="#FFFFFF" fill-opacity="1.000000" fill-rule="evenodd"/>
	<path id="Vector" d="M26.99 15.06C25.2 15.06 23.75 13.6 23.75 11.81C23.75 11.46 24.03 11.18 24.38 11.18C24.73 11.18 25.01 11.46 25.01 11.81C25.01 12.9 25.9 13.79 26.99 13.79C28.09 13.79 28.98 12.9 28.98 11.81C28.98 10.72 28.09 9.83 26.99 9.83C25.2 9.83 23.75 8.37 23.75 6.58C23.75 4.79 25.2 3.33 26.99 3.33C28.79 3.33 30.24 4.79 30.24 6.58C30.24 6.93 29.96 7.21 29.61 7.21C29.26 7.21 28.98 6.93 28.98 6.58C28.98 5.48 28.09 4.59 26.99 4.59C25.9 4.59 25.01 5.48 25.01 6.58C25.01 7.67 25.9 8.56 26.99 8.56C28.79 8.56 30.24 10.02 30.24 11.81C30.24 13.6 28.79 15.06 26.99 15.06Z" fill="#FFFFFF" fill-opacity="1.000000" fill-rule="evenodd"/>
	<path id="Vector" d="M31.46 18.62L22.53 18.62C22.18 18.62 21.9 18.34 21.9 17.99C21.9 17.64 22.18 17.36 22.53 17.36L31.46 17.36C31.81 17.36 32.09 17.64 32.09 17.99C32.09 18.34 31.81 18.62 31.46 18.62Z" fill="#FFFFFF" fill-opacity="1.000000" fill-rule="evenodd"/>
	<path id="Vector" d="M31.46 24.47L22.53 24.47C22.18 24.47 21.9 24.19 21.9 23.84C21.9 23.49 22.18 23.21 22.53 23.21L31.46 23.21C31.81 23.21 32.09 23.49 32.09 23.84C32.09 24.19 31.81 24.47 31.46 24.47Z" fill="#FFFFFF" fill-opacity="1.000000" fill-rule="evenodd"/>
	<path id="Vector" d="M31.46 30.32L22.53 30.32C22.18 30.32 21.9 30.04 21.9 29.69C21.9 29.34 22.18 29.05 22.53 29.05L31.46 29.05C31.81 29.05 32.09 29.34 32.09 29.69C32.09 30.04 31.81 30.32 31.46 30.32Z" fill="#FFFFFF" fill-opacity="1.000000" fill-rule="evenodd"/>
	<path id="Vector" d="M31.87 36.3L22.12 36.3C21.77 36.3 21.49 36.01 21.49 35.66L21.49 33.25C21.49 32.9 21.77 32.62 22.12 32.62L31.87 32.62C32.22 32.62 32.5 32.9 32.5 33.25L32.5 35.66C32.5 36.01 32.22 36.3 31.87 36.3ZM22.75 35.03L31.23 35.03L31.23 33.89L22.75 33.89L22.75 35.03Z" fill="#FFFFFF" fill-opacity="1.000000" fill-rule="evenodd"/>
</svg>
