<svg width="55.000000" height="55.000000" viewBox="0 0 55 55" fill="none" xmlns="http://www.w3.org/2000/svg" xmlns:xlink="http://www.w3.org/1999/xlink">
	<desc>
			Created with Pixso.
	</desc>
	<defs>
		<clipPath id="clip116_270">
			<rect id="diet" width="55.000000" height="55.000000" fill="white" fill-opacity="0"/>
		</clipPath>
	</defs>
	<rect id="diet" width="55.000000" height="55.000000" fill="#FFFFFF" fill-opacity="0"/>
	<g clip-path="url(#clip116_270)">
		<path id="Vector" d="M6.01 30.93L31.79 30.93C32.48 30.93 33.13 30.66 33.61 30.18C34.1 29.69 34.37 29.04 34.37 28.35L34.37 24.92C34.37 24.23 34.1 23.58 33.61 23.09C33.13 22.61 32.48 22.34 31.79 22.34L6.01 22.34C4.87 22.34 3.78 22.79 2.97 23.6C2.17 24.4 1.71 25.5 1.71 26.64L1.71 33.51C1.71 34.65 2.17 35.74 2.97 36.55C3.78 37.35 4.87 37.81 6.01 37.81C6.24 37.81 6.46 37.72 6.62 37.56C6.78 37.39 6.87 37.18 6.87 36.95C6.87 36.72 6.78 36.5 6.62 36.34C6.46 36.18 6.24 36.09 6.01 36.09C5.33 36.09 4.67 35.82 4.19 35.33C3.7 34.85 3.43 34.19 3.43 33.51C3.43 32.83 3.7 32.17 4.19 31.69C4.67 31.2 5.33 30.93 6.01 30.93ZM3.43 26.64C3.43 25.95 3.7 25.3 4.19 24.81C4.67 24.33 5.33 24.06 6.01 24.06L31.79 24.06C32.02 24.06 32.24 24.15 32.4 24.31C32.56 24.47 32.65 24.69 32.65 24.92L32.65 28.35C32.65 28.58 32.56 28.8 32.4 28.96C32.24 29.12 32.02 29.21 31.79 29.21L29.21 29.21L29.21 26.64C29.21 26.41 29.12 26.19 28.96 26.03C28.8 25.87 28.58 25.78 28.35 25.78C28.13 25.78 27.91 25.87 27.75 26.03C27.59 26.19 27.5 26.41 27.5 26.64L27.5 29.21L24.06 29.21L24.06 27.5C24.06 27.27 23.97 27.05 23.81 26.89C23.64 26.73 23.43 26.64 23.2 26.64C22.97 26.64 22.75 26.73 22.59 26.89C22.43 27.05 22.34 27.27 22.34 27.5L22.34 29.21L18.9 29.21L18.9 26.64C18.9 26.41 18.81 26.19 18.65 26.03C18.49 25.87 18.27 25.78 18.04 25.78C17.81 25.78 17.6 25.87 17.43 26.03C17.27 26.19 17.18 26.41 17.18 26.64L17.18 29.21L13.75 29.21L13.75 27.5C13.75 27.27 13.65 27.05 13.49 26.89C13.33 26.73 13.11 26.64 12.89 26.64C12.66 26.64 12.44 26.73 12.28 26.89C12.12 27.05 12.03 27.27 12.03 27.5L12.03 29.21L8.59 29.21L8.59 26.64C8.59 26.41 8.5 26.19 8.34 26.03C8.18 25.87 7.96 25.78 7.73 25.78C7.5 25.78 7.28 25.87 7.12 26.03C6.96 26.19 6.87 26.41 6.87 26.64L6.87 29.21L6.01 29.21C5.08 29.21 4.18 29.52 3.43 30.08L3.43 26.64ZM10.04 20.53C10.14 20.58 10.25 20.61 10.36 20.62C10.48 20.63 10.59 20.61 10.7 20.57C10.8 20.54 10.9 20.48 10.99 20.4C11.07 20.33 11.14 20.24 11.19 20.14C11.95 18.41 13.22 16.96 14.83 15.97C16.44 14.98 18.31 14.5 20.19 14.6C22.7 14.61 25.1 15.58 26.91 17.31C27.07 17.46 27.28 17.55 27.5 17.55C27.71 17.55 27.92 17.46 28.08 17.31C29.89 15.58 32.29 14.61 34.8 14.6C41.73 14.6 45.54 19.79 45.54 29.21C45.54 30.02 45.5 30.86 45.42 31.71C45.4 31.94 45.47 32.17 45.62 32.34C45.76 32.52 45.97 32.63 46.2 32.65C46.23 32.65 46.25 32.65 46.28 32.65C46.49 32.65 46.7 32.57 46.86 32.43C47.02 32.28 47.11 32.08 47.13 31.87C47.22 30.96 47.26 30.07 47.26 29.21C47.26 18.84 42.72 12.89 34.8 12.89C33.17 12.88 31.56 13.23 30.07 13.91L30.07 13.75C30.07 12.61 30.53 11.51 31.33 10.71C32.14 9.9 33.23 9.45 34.37 9.45C35.05 9.45 35.71 9.18 36.19 8.69C36.68 8.21 36.95 7.55 36.95 6.87C36.95 6.19 36.68 5.53 36.19 5.05C35.71 4.56 35.05 4.29 34.37 4.29C31.86 4.29 29.46 5.29 27.69 7.06C25.92 8.84 24.92 11.24 24.92 13.75L24.92 13.91C23.43 13.23 21.82 12.88 20.19 12.89C17.98 12.79 15.8 13.36 13.92 14.52C12.04 15.67 10.55 17.37 9.64 19.39C9.59 19.49 9.56 19.6 9.56 19.71C9.55 19.82 9.57 19.94 9.6 20.04C9.64 20.15 9.7 20.25 9.77 20.33C9.85 20.42 9.94 20.48 10.04 20.53ZM26.64 13.75C26.64 11.69 27.45 9.73 28.9 8.28C30.35 6.83 32.32 6.01 34.37 6.01C34.6 6.01 34.82 6.1 34.98 6.26C35.14 6.42 35.23 6.64 35.23 6.87C35.23 7.1 35.14 7.32 34.98 7.48C34.82 7.64 34.6 7.73 34.37 7.73C32.78 7.73 31.25 8.37 30.12 9.49C28.99 10.62 28.36 12.15 28.35 13.75L28.35 14.89C28.06 15.1 27.77 15.31 27.5 15.54C27.22 15.31 26.93 15.1 26.64 14.89L26.64 13.75ZM41.68 44.87C41.86 45.01 41.98 45.22 42 45.45C42.03 45.67 41.96 45.9 41.82 46.08C39.39 49.1 36.52 50.7 33.51 50.7C31.3 50.71 29.16 49.92 27.5 48.46C25.83 49.92 23.69 50.71 21.48 50.7C14.38 50.7 9.36 42.12 8.07 33.64C8.04 33.41 8.1 33.19 8.23 33C8.37 32.82 8.57 32.7 8.79 32.66C9.02 32.63 9.25 32.69 9.43 32.82C9.62 32.95 9.74 33.16 9.77 33.38C10.92 40.94 15.42 48.98 21.48 48.98C22.49 48.98 23.49 48.78 24.42 48.38C25.35 47.99 26.19 47.41 26.89 46.68C27.05 46.53 27.27 46.44 27.5 46.44C27.72 46.44 27.94 46.53 28.1 46.68C28.8 47.41 29.64 47.99 30.57 48.38C31.5 48.78 32.5 48.98 33.51 48.98C36.63 48.98 39.02 46.82 40.48 45C40.62 44.83 40.83 44.71 41.05 44.69C41.28 44.66 41.51 44.73 41.68 44.87ZM50.05 27.63C49.83 27.58 49.6 27.61 49.4 27.73C49.3 27.78 49.22 27.86 49.15 27.95C49.08 28.04 49.03 28.14 49.01 28.25C48.98 28.36 48.97 28.48 48.99 28.59C49 28.7 49.04 28.81 49.1 28.9C49.22 29.1 49.41 29.24 49.63 29.3C50.23 29.46 50.76 29.83 51.11 30.35C51.47 30.87 51.62 31.5 51.54 32.12C51.46 32.74 51.15 33.31 50.68 33.73C50.21 34.14 49.61 34.37 48.98 34.37L23.2 34.37C22.51 34.37 21.86 34.64 21.38 35.13C20.89 35.61 20.62 36.26 20.62 36.95L20.62 40.39C20.62 41.07 20.89 41.72 21.38 42.21C21.86 42.69 22.51 42.96 23.2 42.96L48.98 42.96C50.12 42.96 51.21 42.51 52.02 41.7C52.82 40.9 53.28 39.81 53.28 38.67L53.28 31.79C53.28 30.84 52.96 29.91 52.38 29.16C51.79 28.41 50.97 27.87 50.05 27.63ZM51.56 38.67C51.56 39.35 51.29 40.01 50.8 40.49C50.32 40.97 49.66 41.24 48.98 41.25L48.12 41.25L48.12 38.67C48.12 38.44 48.03 38.22 47.87 38.06C47.71 37.9 47.49 37.81 47.26 37.81C47.03 37.81 46.81 37.9 46.65 38.06C46.49 38.22 46.4 38.44 46.4 38.67L46.4 41.25L42.96 41.25L42.96 39.53C42.96 39.3 42.87 39.08 42.71 38.92C42.55 38.76 42.33 38.67 42.1 38.67C41.88 38.67 41.66 38.76 41.5 38.92C41.34 39.08 41.25 39.3 41.25 39.53L41.25 41.25L37.81 41.25L37.81 38.67C37.81 38.44 37.72 38.22 37.56 38.06C37.39 37.9 37.18 37.81 36.95 37.81C36.72 37.81 36.5 37.9 36.34 38.06C36.18 38.22 36.09 38.44 36.09 38.67L36.09 41.25L32.65 41.25L32.65 39.53C32.65 39.3 32.56 39.08 32.4 38.92C32.24 38.76 32.02 38.67 31.79 38.67C31.56 38.67 31.35 38.76 31.18 38.92C31.02 39.08 30.93 39.3 30.93 39.53L30.93 41.25L27.5 41.25L27.5 38.67C27.5 38.44 27.4 38.22 27.24 38.06C27.08 37.9 26.86 37.81 26.64 37.81C26.41 37.81 26.19 37.9 26.03 38.06C25.87 38.22 25.78 38.44 25.78 38.67L25.78 41.25L23.2 41.25C22.97 41.25 22.75 41.15 22.59 40.99C22.43 40.83 22.34 40.61 22.34 40.39L22.34 36.95C22.34 36.72 22.43 36.5 22.59 36.34C22.75 36.18 22.97 36.09 23.2 36.09L48.98 36.09C49.91 36.09 50.81 35.79 51.56 35.23L51.56 38.67Z" fill="#FFFFFF" fill-opacity="1.000000" fill-rule="nonzero"/>
	</g>
</svg>
