<svg width="43.000000" height="43.000000" viewBox="0 0 43 43" fill="none" xmlns="http://www.w3.org/2000/svg" xmlns:xlink="http://www.w3.org/1999/xlink">
	<desc>
			Created with Pixso.
	</desc>
	<defs>
		<clipPath id="clip55_525">
			<rect id="boxes" width="43.000000" height="43.000000" fill="white" fill-opacity="0"/>
		</clipPath>
	</defs>
	<rect id="boxes" width="43.000000" height="43.000000" fill="#FFFFFF" fill-opacity="0"/>
	<g clip-path="url(#clip55_525)">
		<path id="Vector" d="M3.7 43L5.71 43C6.08 43 6.38 42.69 6.38 42.32L6.38 40.97L36.61 40.97L36.61 42.32C36.61 42.69 36.91 43 37.28 43L39.3 43C39.67 43 39.97 42.69 39.97 42.32L39.97 1.67C39.97 0.75 39.22 0 38.29 0C37.36 0 36.61 0.75 36.61 1.67L36.61 12.09L34.6 12.09L34.6 2.69C34.6 2.32 34.29 2.02 33.92 2.02L23.18 2.02C22.8 2.02 22.5 2.32 22.5 2.69L22.5 12.09L20.49 12.09L20.49 2.69C20.49 2.32 20.19 2.02 19.82 2.02L9.07 2.02C8.7 2.02 8.4 2.32 8.4 2.69L8.4 12.09L6.38 12.09L6.38 1.67C6.38 0.75 5.63 0 4.7 0C3.77 0 3.02 0.75 3.02 1.67L3.03 42.32C3.03 42.69 3.33 43 3.7 43ZM37.95 1.67C37.95 1.49 38.1 1.34 38.29 1.34C38.47 1.34 38.62 1.49 38.62 1.67L38.62 41.65L37.95 41.65L37.95 1.67ZM27.88 3.36L29.22 3.36L29.22 4.04L27.88 4.04L27.88 3.36ZM23.85 3.36L26.53 3.36L26.53 4.71C26.53 5.08 26.83 5.38 27.21 5.38L29.89 5.38C30.27 5.38 30.57 5.08 30.57 4.71L30.57 3.36L33.25 3.36L33.25 12.09L23.85 12.09L23.85 3.36ZM13.77 3.36L15.11 3.36L15.11 4.04L13.77 4.04L13.77 3.36ZM9.74 3.36L12.42 3.36L12.42 4.71C12.42 5.08 12.73 5.38 13.1 5.38L15.78 5.38C16.16 5.38 16.46 5.08 16.46 4.71L16.46 3.36L19.14 3.36L19.14 12.09L9.74 12.09L9.74 3.36ZM6.38 13.43L9.07 13.43L19.82 13.43L23.18 13.43L33.92 13.43L36.61 13.43L36.61 14.11L6.38 14.11L6.38 13.43ZM6.38 15.45L36.61 15.45L36.61 24.84L34.6 24.84L34.6 17.45C34.6 17.08 34.3 16.78 33.92 16.78L9.07 16.78C8.69 16.78 8.39 17.08 8.39 17.45L8.39 24.84L6.38 24.84L6.38 15.45ZM19.82 20.14L23.17 20.14C23.55 20.14 23.85 19.84 23.85 19.47L23.85 18.12L33.25 18.12L33.25 24.84L9.74 24.84L9.74 18.12L19.14 18.12L19.14 19.47C19.14 19.84 19.44 20.14 19.82 20.14ZM20.49 18.8L20.49 18.12L22.5 18.12L22.5 18.8L20.49 18.8ZM6.38 26.18L9.07 26.18L33.92 26.18L36.61 26.18L36.61 26.85L6.38 26.85L6.38 26.18ZM6.38 28.2L36.61 28.2L36.61 37.6L34.6 37.6L34.6 29.55C34.6 29.18 34.3 28.88 33.93 28.88L24.52 28.88C24.15 28.88 23.85 29.18 23.85 29.55L23.85 37.6L21.83 37.6L21.83 31.57C21.83 31.19 21.54 30.89 21.16 30.89L16.46 30.89C16.46 30.89 16.46 30.89 16.46 30.89C16.45 30.89 16.45 30.89 16.45 30.89L13.78 30.89C13.77 30.89 13.77 30.89 13.77 30.89C13.77 30.89 13.76 30.89 13.76 30.89L9.07 30.89C8.7 30.89 8.4 31.19 8.4 31.57L8.4 37.6L6.38 37.6L6.38 28.2ZM27.88 32.24L30.57 32.24C30.94 32.24 31.24 31.94 31.24 31.57L31.24 30.22L33.25 30.22L33.25 37.6L25.19 37.6L25.19 30.22L27.21 30.22L27.21 31.57C27.21 31.94 27.51 32.24 27.88 32.24ZM28.55 30.9L28.55 30.22L29.9 30.22L29.9 30.9L28.55 30.9ZM13.77 34.26L16.46 34.26C16.83 34.26 17.13 33.96 17.13 33.58L17.13 32.24L20.49 32.24L20.49 37.6L9.74 37.6L9.74 32.24L13.1 32.24L13.1 33.58C13.1 33.96 13.4 34.26 13.77 34.26ZM14.44 32.91L14.44 32.24L15.79 32.24L15.79 32.91L14.44 32.91ZM6.38 38.95L9.07 38.95L21.16 38.95L24.52 38.95L33.93 38.95L36.61 38.95L36.61 39.62L6.38 39.62L6.38 38.95ZM4.7 1.34C4.89 1.34 5.04 1.49 5.04 1.67L5.04 41.65L4.37 41.65L4.37 1.67C4.37 1.49 4.52 1.34 4.7 1.34Z" fill="#000000" fill-opacity="1.000000" fill-rule="nonzero"/>
	</g>
</svg>
