<svg width="55.000000" height="55.000000" viewBox="0 0 55 55" fill="none" xmlns="http://www.w3.org/2000/svg" xmlns:xlink="http://www.w3.org/1999/xlink">
	<desc>
			Created with Pixso.
	</desc>
	<defs>
		<clipPath id="clip55_558">
			<rect width="55.000000" height="55.000000" fill="white" fill-opacity="0"/>
		</clipPath>
	</defs>
	<rect width="55.000000" height="55.000000" fill="#FFFFFF" fill-opacity="0"/>
	<g clip-path="url(#clip55_558)">
		<path d="M23.07 37.81L42.1 37.81C42.58 37.81 42.96 37.42 42.96 36.95L42.96 23.2C42.96 22.72 42.58 22.34 42.1 22.34L12.89 22.34C12.41 22.34 12.03 22.72 12.03 23.2L12.03 27.6C11.58 27.54 11.12 27.5 10.66 27.5C9.17 27.5 7.68 27.85 6.35 28.51L5.35 29.01C3.96 29.71 2.41 30.07 0.86 30.07L0.86 31.79C2.67 31.79 4.5 31.36 6.12 30.55L7.12 30.05C9.82 28.7 13.26 29.07 15.62 30.95L20.57 34.91C21.15 35.38 21.48 36.07 21.48 36.81C21.48 37.29 21.34 37.76 21.07 38.16L20.38 39.19L13.36 34.51L12.41 35.94L20.14 41.1C20.25 41.17 20.36 41.21 20.49 41.23L34.86 43.5C35.57 43.62 36.09 44.22 36.09 44.94C36.09 45.75 35.43 46.4 34.63 46.4L21.48 46.4C19.36 46.4 17.25 45.9 15.35 44.96L10.42 42.49C8.79 41.67 6.97 41.25 5.15 41.25L0.86 41.25L0.86 42.96L5.15 42.96C6.71 42.96 8.26 43.33 9.65 44.03L14.58 46.49C16.71 47.56 19.1 48.12 21.48 48.12L34.63 48.12C36.38 48.12 37.81 46.7 37.81 44.94C37.81 43.37 36.68 42.05 35.13 41.81L22.08 39.75L22.5 39.11C22.77 38.71 22.95 38.27 23.07 37.81ZM37.89 36.09C38.24 34.41 39.56 33.08 41.25 32.74L41.25 36.09L37.89 36.09ZM41.25 27.41C39.56 27.07 38.24 25.74 37.89 24.06L41.25 24.06L41.25 27.41ZM17.1 24.06C16.75 25.74 15.43 27.07 13.75 27.41L13.75 24.06L17.1 24.06ZM21.64 33.57L18.34 30.93L21.48 30.93L21.48 29.21L18.04 29.21L18.04 30.69L16.69 29.61C16.26 29.26 15.8 28.96 15.32 28.7C17.17 27.87 18.53 26.13 18.83 24.06L36.16 24.06C36.54 26.69 38.62 28.77 41.25 29.15L41.25 31C38.62 31.38 36.54 33.46 36.16 36.09L23.13 36.09C22.96 35.1 22.44 34.21 21.64 33.57Z" fill="#000000" fill-opacity="1.000000" fill-rule="nonzero"/>
		<path d="M27.5 34.37C29.86 34.37 31.79 32.44 31.79 30.07C31.79 27.7 29.86 25.78 27.5 25.78C25.13 25.78 23.2 27.7 23.2 30.07C23.2 32.44 25.13 34.37 27.5 34.37ZM27.5 27.5C28.92 27.5 30.07 28.65 30.07 30.07C30.07 31.49 28.92 32.65 27.5 32.65C26.07 32.65 24.92 31.49 24.92 30.07C24.92 28.65 26.07 27.5 27.5 27.5Z" fill="#000000" fill-opacity="1.000000" fill-rule="nonzero"/>
		<path d="M33.51 29.21L36.95 29.21L36.95 30.93L33.51 30.93L33.51 29.21Z" fill="#000000" fill-opacity="1.000000" fill-rule="nonzero"/>
		<path d="M33.51 9.45L30.07 9.45L30.07 7.73C30.07 7.43 29.92 7.16 29.66 7C29.41 6.84 29.1 6.83 28.83 6.96L18.52 12.12C18.23 12.26 18.04 12.56 18.04 12.89C18.04 13.21 18.23 13.51 18.52 13.65L28.83 18.81C29.1 18.94 29.41 18.93 29.67 18.77C29.92 18.62 30.07 18.34 30.07 18.04L30.07 16.32L33.51 16.32C41.09 16.32 47.26 22.49 47.26 30.07C47.26 30.55 47.64 30.93 48.12 30.93L53.28 30.93C53.75 30.93 54.14 30.55 54.14 30.07C54.14 18.7 44.88 9.45 33.51 9.45ZM48.96 29.21C48.51 21.08 41.75 14.6 33.51 14.6L29.21 14.6C28.74 14.6 28.35 14.99 28.35 15.46L28.35 16.65L20.82 12.89L28.35 9.12L28.35 10.31C28.35 10.78 28.74 11.17 29.21 11.17L33.51 11.17C43.65 11.17 51.95 19.19 52.4 29.21L48.96 29.21Z" fill="#000000" fill-opacity="1.000000" fill-rule="nonzero"/>
	</g>
</svg>
