<svg width="48.000000" height="48.000000" viewBox="0 0 48 48" fill="none" xmlns="http://www.w3.org/2000/svg" xmlns:xlink="http://www.w3.org/1999/xlink">
	<desc>
			Created with Pixso.
	</desc>
	<defs>
		<clipPath id="clip118_23">
			<rect width="48.000000" height="48.000000" fill="white" fill-opacity="0"/>
		</clipPath>
	</defs>
	<rect width="48.000000" height="48.000000" fill="#FFFFFF" fill-opacity="0"/>
	<g clip-path="url(#clip118_23)">
		<path d="M36 16C36 15.2 36.31 14.44 36.87 13.87C37.44 13.31 38.2 13 39 13C39.79 13 40.55 13.31 41.12 13.87C41.68 14.44 42 15.2 42 16L42 36.3L39 40.8L36 36.3L36 16ZM39 15C38.73 15 38.48 15.1 38.29 15.29C38.1 15.48 38 15.73 38 16L38 35.69L39 37.19L40 35.69L40 16C40 15.73 39.89 15.48 39.7 15.29C39.51 15.1 39.26 15 39 15Z" fill="#FFFFFF" fill-opacity="1.000000" fill-rule="evenodd"/>
		<path d="M41 20L37 20L37 18L41 18L41 20ZM10 8C9.46 8 8.96 8.21 8.58 8.58C8.21 8.96 8 9.46 8 10L8 38C8 38.53 8.21 39.03 8.58 39.41C8.96 39.78 9.46 40 10 40L30 40C30.53 40 31.03 39.78 31.41 39.41C31.78 39.03 32 38.53 32 38L32 10C32 9.46 31.78 8.96 31.41 8.58C31.03 8.21 30.53 8 30 8L10 8ZM6 10C6 8.93 6.42 7.92 7.17 7.17C7.92 6.42 8.93 6 10 6L30 6C31.06 6 32.07 6.42 32.82 7.17C33.57 7.92 34 8.93 34 10L34 38C34 39.06 33.57 40.07 32.82 40.82C32.07 41.57 31.06 42 30 42L10 42C8.93 42 7.92 41.57 7.17 40.82C6.42 40.07 6 39.06 6 38L6 10Z" fill="#FFFFFF" fill-opacity="1.000000" fill-rule="evenodd"/>
		<path d="M20 15C20 14.73 20.1 14.48 20.29 14.29C20.48 14.1 20.73 14 21 14L29 14C29.26 14 29.51 14.1 29.7 14.29C29.89 14.48 30 14.73 30 15C30 15.26 29.89 15.51 29.7 15.7C29.51 15.89 29.26 16 29 16L21 16C20.73 16 20.48 15.89 20.29 15.7C20.1 15.51 20 15.26 20 15ZM20 19C20 18.73 20.1 18.48 20.29 18.29C20.48 18.1 20.73 18 21 18L29 18C29.26 18 29.51 18.1 29.7 18.29C29.89 18.48 30 18.73 30 19C30 19.26 29.89 19.51 29.7 19.7C29.51 19.89 29.26 20 29 20L21 20C20.73 20 20.48 19.89 20.29 19.7C20.1 19.51 20 19.26 20 19ZM20 28C20 27.73 20.1 27.48 20.29 27.29C20.48 27.1 20.73 27 21 27L29 27C29.26 27 29.51 27.1 29.7 27.29C29.89 27.48 30 27.73 30 28C30 28.26 29.89 28.51 29.7 28.7C29.51 28.89 29.26 29 29 29L21 29C20.73 29 20.48 28.89 20.29 28.7C20.1 28.51 20 28.26 20 28ZM20 32C20 31.73 20.1 31.48 20.29 31.29C20.48 31.1 20.73 31 21 31L29 31C29.26 31 29.51 31.1 29.7 31.29C29.89 31.48 30 31.73 30 32C30 32.26 29.89 32.51 29.7 32.7C29.51 32.89 29.26 33 29 33L21 33C20.73 33 20.48 32.89 20.29 32.7C20.1 32.51 20 32.26 20 32ZM12 28L12 31L15 31L15 28L12 28ZM11 26L16 26C16.26 26 16.51 26.1 16.7 26.29C16.89 26.48 17 26.73 17 27L17 32C17 32.26 16.89 32.51 16.7 32.7C16.51 32.89 16.26 33 16 33L11 33C10.73 33 10.48 32.89 10.29 32.7C10.1 32.51 10 32.26 10 32L10 27C10 26.73 10.1 26.48 10.29 26.29C10.48 26.1 10.73 26 11 26ZM17.7 14.29C17.89 14.48 18 14.73 18 15C18 15.26 17.89 15.51 17.7 15.7L13 20.41L10.29 17.7C10.19 17.61 10.12 17.5 10.06 17.38C10.01 17.26 9.98 17.12 9.98 16.99C9.98 16.86 10.01 16.73 10.06 16.6C10.11 16.48 10.18 16.37 10.28 16.28C10.37 16.18 10.48 16.11 10.6 16.06C10.73 16.01 10.86 15.98 10.99 15.98C11.12 15.98 11.26 16.01 11.38 16.06C11.5 16.12 11.61 16.19 11.7 16.29L13 17.58L16.29 14.29C16.48 14.1 16.73 14 17 14C17.26 14 17.51 14.1 17.7 14.29Z" fill="#FFFFFF" fill-opacity="1.000000" fill-rule="evenodd"/>
	</g>
</svg>
