<svg width="24.000000" height="24.000000" viewBox="0 0 24 24" fill="none" xmlns="http://www.w3.org/2000/svg" xmlns:xlink="http://www.w3.org/1999/xlink">
	<desc>
			Created with Pixso.
	</desc>
	<defs>
		<clipPath id="clip22_50">
			<rect id="material-symbols:phone-in-talk-rounded" width="24.000000" height="24.000000" fill="white" fill-opacity="0"/>
		</clipPath>
	</defs>
	<rect id="material-symbols:phone-in-talk-rounded" width="24.000000" height="24.000000" fill="#FFFFFF" fill-opacity="0"/>
	<g clip-path="url(#clip22_50)">
		<path id="Vector" d="M20 12C19.73 12 19.49 11.9 19.28 11.71C19.07 11.52 18.95 11.28 18.92 11C18.7 9.44 18.05 8.12 16.96 7.03C15.87 5.94 14.54 5.29 13 5.07C12.71 5.04 12.47 4.92 12.28 4.72C12.09 4.52 12 4.28 12 4C12 3.71 12.09 3.47 12.29 3.28C12.5 3.09 12.73 3.01 13 3.05C15.09 3.28 16.89 4.14 18.37 5.62C19.85 7.1 20.71 8.9 20.95 11C20.98 11.26 20.9 11.5 20.71 11.7C20.52 11.9 20.28 12 20 12ZM15.82 12C15.6 12 15.41 11.92 15.25 11.77C15.08 11.62 14.95 11.42 14.87 11.17C14.74 10.69 14.48 10.26 14.11 9.88C13.73 9.51 13.3 9.25 12.82 9.12C12.57 9.04 12.37 8.91 12.22 8.75C12.07 8.58 12 8.38 12 8.15C12 7.81 12.11 7.54 12.34 7.33C12.58 7.12 12.84 7.05 13.12 7.12C14.05 7.34 14.86 7.78 15.53 8.46C16.21 9.13 16.65 9.94 16.87 10.87C16.94 11.15 16.86 11.41 16.65 11.65C16.43 11.88 16.15 12 15.82 12ZM19.95 21C17.79 21 15.7 20.52 13.66 19.56C11.62 18.6 9.81 17.33 8.23 15.76C6.66 14.18 5.39 12.37 4.43 10.33C3.47 8.29 3 6.19 3 4.05C3 3.75 3.09 3.5 3.29 3.3C3.5 3.09 3.75 3 4.04 3L8.09 3C8.33 3 8.54 3.07 8.72 3.22C8.9 3.37 9.01 3.56 9.04 3.8L9.7 7.3C9.73 7.53 9.72 7.74 9.68 7.93C9.64 8.12 9.54 8.3 9.4 8.44L7 10.9C7.7 12.1 8.57 13.22 9.62 14.27C10.67 15.32 11.83 16.23 13.09 17L15.45 14.65C15.59 14.5 15.79 14.38 16.03 14.31C16.27 14.23 16.51 14.21 16.75 14.25L20.2 14.95C20.43 15 20.62 15.11 20.77 15.28C20.92 15.46 21 15.66 21 15.9L21 19.95C21 20.25 20.9 20.5 20.7 20.7C20.5 20.9 20.25 21 19.95 21Z" fill="#302929" fill-opacity="1.000000" fill-rule="nonzero"/>
	</g>
</svg>
