<svg width="28.000000" height="28.000000" viewBox="0 0 28 28" fill="none" xmlns="http://www.w3.org/2000/svg" xmlns:xlink="http://www.w3.org/1999/xlink">
	<desc>
			Created with Pixso.
	</desc>
	<defs/>
	<rect id="Component 5" width="17.000000" height="18.000000" transform="translate(6.000000 5.000000)" fill="#FFFFFF" fill-opacity="0"/>
	<rect id="Component 4" width="12.772487" height="15.000007" transform="translate(8.023438 6.285767)" fill="#FFFFFF" fill-opacity="0"/>
	<path id="Vector (Stroke)" d="M14.41 8C13.31 8 12.43 8.93 12.43 10.09C12.43 11.25 13.31 12.19 14.41 12.19C15.5 12.19 16.38 11.25 16.38 10.09C16.38 8.93 15.5 8 14.41 8ZM10.81 10.09C10.81 7.99 12.42 6.28 14.41 6.28C16.39 6.28 18 7.99 18 10.09C18 12.19 16.39 13.9 14.41 13.9C12.42 13.9 10.81 12.19 10.81 10.09Z" fill="#FFFFFF" fill-opacity="1.000000" fill-rule="evenodd"/>
	<path id="Vector (Stroke)" d="M13.01 16.11C11.15 16.11 9.64 17.71 9.64 19.69L9.64 20.42C9.64 20.9 9.28 21.28 8.83 21.28C8.38 21.28 8.02 20.9 8.02 20.42L8.02 19.69C8.02 16.77 10.25 14.4 13.01 14.4L15.8 14.4C18.56 14.4 20.79 16.77 20.79 19.69L20.79 20.42C20.79 20.9 20.43 21.28 19.98 21.28C19.53 21.28 19.17 20.9 19.17 20.42L19.17 19.69C19.17 17.71 17.66 16.11 15.8 16.11L13.01 16.11Z" fill="#FFFFFF" fill-opacity="1.000000" fill-rule="evenodd"/>
	<circle id="Ellipse 5" cx="14.000000" cy="14.000000" r="13.000000" stroke="#FFFFFF" stroke-opacity="1.000000" stroke-width="2.000000"/>
</svg>
