<svg width="31.000000" height="28.000000" viewBox="0 0 31 28" fill="none" xmlns="http://www.w3.org/2000/svg" xmlns:xlink="http://www.w3.org/1999/xlink">
	<desc>
			Created with Pixso.
	</desc>
	<defs/>
	<path id="Vector" d="M30.21 0.54C29.89 0.27 29.5 0.09 29.09 0.03C28.68 -0.04 28.26 0 27.87 0.15L1.45 10.51C0.99 10.68 0.6 11 0.33 11.43C0.07 11.85 -0.04 12.34 0.01 12.83C0.05 13.32 0.25 13.79 0.58 14.16C0.91 14.53 1.35 14.78 1.84 14.87L8.55 16.2L8.55 24.57C8.55 25.02 8.68 25.46 8.94 25.84C9.19 26.22 9.55 26.51 9.97 26.68C10.25 26.79 10.54 26.85 10.84 26.85C11.14 26.85 11.44 26.79 11.72 26.68C12 26.56 12.25 26.39 12.46 26.18L16.18 22.48L21.8 27.42C22.22 27.79 22.75 27.99 23.31 27.99C23.55 28 23.79 27.96 24.02 27.88C24.4 27.76 24.74 27.55 25.01 27.26C25.28 26.96 25.47 26.61 25.55 26.22L30.94 2.78C31.03 2.38 31.01 1.95 30.88 1.56C30.75 1.16 30.52 0.81 30.21 0.54ZM9.42 14.05L2.3 12.63L22.28 4.79L9.42 14.05ZM10.84 24.57L10.84 17.8L14.45 20.97L10.84 24.57ZM23.32 25.71L11.53 15.36L28.52 3.12L23.32 25.71Z" fill="#FFFFFF" fill-opacity="1.000000" fill-rule="nonzero"/>
</svg>
