<svg width="37.000000" height="37.000000" viewBox="0 0 37 37" fill="none" xmlns="http://www.w3.org/2000/svg" xmlns:xlink="http://www.w3.org/1999/xlink">
	<desc>
			Created with Pixso.
	</desc>
	<defs/>
	<path id="Vector" d="M18 -0.75C14.29 -0.75 10.66 0.34 7.58 2.4C4.5 4.47 2.09 7.39 0.67 10.82C-0.75 14.25 -1.12 18.02 -0.39 21.65C0.33 25.29 2.11 28.63 4.74 31.25C7.36 33.88 10.7 35.66 14.34 36.38C17.97 37.11 21.74 36.74 25.17 35.32C28.6 33.9 31.53 31.5 33.58 28.41C35.65 25.33 36.75 21.7 36.75 18C36.74 13.03 34.76 8.26 31.24 4.75C27.73 1.23 22.96 -0.74 18 -0.75ZM18 35.25C14.58 35.25 11.25 34.23 8.41 32.34C5.58 30.44 3.36 27.75 2.06 24.6C0.75 21.44 0.41 17.98 1.08 14.63C1.74 11.28 3.38 8.21 5.8 5.8C8.21 3.38 11.28 1.74 14.63 1.08C17.98 0.41 21.44 0.75 24.6 2.06C27.75 3.36 30.44 5.57 32.34 8.41C34.23 11.25 35.25 14.58 35.25 18C35.24 22.57 33.42 26.95 30.19 30.19C26.95 33.42 22.57 35.24 18 35.25ZM26.25 18C26.25 18.19 26.17 18.38 26.03 18.53C25.88 18.67 25.69 18.75 25.5 18.75L12.31 18.75L17.4 23.83C17.53 23.97 17.6 24.16 17.6 24.36C17.6 24.56 17.53 24.75 17.4 24.89C17.32 24.96 17.24 25.02 17.14 25.05C17.05 25.09 16.95 25.11 16.85 25.1C16.75 25.1 16.66 25.09 16.57 25.05C16.48 25.02 16.4 24.96 16.33 24.89L9.97 18.52C9.9 18.45 9.84 18.37 9.81 18.28C9.77 18.19 9.75 18.09 9.75 18C9.75 17.9 9.77 17.8 9.81 17.71C9.84 17.62 9.9 17.54 9.97 17.47L16.33 11.1C16.47 10.95 16.66 10.87 16.86 10.87C17.06 10.87 17.25 10.95 17.4 11.1C17.54 11.24 17.62 11.43 17.62 11.63C17.62 11.83 17.54 12.02 17.4 12.16L12.31 17.25L25.5 17.25C25.69 17.25 25.88 17.32 26.03 17.46C26.17 17.61 26.25 17.8 26.25 18Z" fill="#FFFFFF" fill-opacity="1.000000" fill-rule="nonzero"/>
</svg>
