<svg width="31.000000" height="35.000000" viewBox="0 0 31 35" fill="none" xmlns="http://www.w3.org/2000/svg" xmlns:xlink="http://www.w3.org/1999/xlink">
	<desc>
			Created with Pixso.
	</desc>
	<defs/>
	<path id="Vector" d="M28.78 13.89C27.81 12.17 26.46 10.64 24.85 9.41C26.21 8.13 26.72 6.61 26.75 6.53C26.85 6.2 26.7 5.84 26.39 5.69C26.09 5.55 25.72 5.67 25.55 5.96C25.48 6.07 25.02 6.8 23.99 6.8C23.63 6.8 23.2 6.71 22.7 6.48C20.15 5.31 17.46 5.76 16.97 5.85L16.58 5.85C16.01 4.43 14.22 0.42 12.2 0.03C11.48 -0.11 10.86 0.14 10.5 0.7C10.06 1.38 10.03 2.69 10.79 3.87C11.08 4.31 11.43 4.94 11.84 5.7C10.7 5.65 9.02 5.73 7.4 6.48C5.45 7.38 4.64 6.11 4.55 5.97C4.38 5.67 4.02 5.55 3.71 5.69C3.41 5.83 3.25 6.18 3.35 6.51C3.37 6.59 3.88 8.3 5.24 9.76C3.74 10.99 2.49 12.51 1.6 14.18C0.54 16.19 0 18.35 0 20.61C0 24.46 1.59 28.09 4.49 30.8C7.37 33.51 11.2 35 15.27 35C19.34 35 23.16 33.51 26.05 30.8C28.95 28.09 30.54 24.46 30.54 20.61C30.54 18.27 29.93 15.95 28.78 13.89ZM7.94 7.73C9.77 6.89 11.75 7.04 12.55 7.14L12.62 7.31L12.62 7.31L13.36 9.05C13.5 9.4 13.89 9.55 14.23 9.41C14.56 9.26 14.72 8.86 14.58 8.52C14.4 8.06 14.08 7.31 13.84 6.76C13.75 6.56 13.69 6.4 13.65 6.31C13.64 6.3 13.64 6.29 13.63 6.28C13.63 6.26 13.62 6.24 13.6 6.21C12.92 4.85 12.35 3.8 11.9 3.11C11.48 2.46 11.45 1.7 11.61 1.45C11.63 1.41 11.69 1.33 11.96 1.38C12.87 1.55 14.46 3.97 15.52 6.78C15.61 7.05 15.86 7.22 16.13 7.22L17.03 7.22C17.08 7.22 17.13 7.22 17.17 7.21C17.19 7.2 17.86 7.06 18.83 7.06C19.78 7.06 21 7.2 22.16 7.73C22.95 8.09 23.63 8.2 24.19 8.16C23.96 8.41 23.68 8.66 23.37 8.88C21.99 9.85 20.26 10.04 18.24 9.45C17.99 9.38 17.72 9.46 17.55 9.66C17.38 9.86 17.34 10.14 17.45 10.39C17.55 10.62 17.73 10.81 18.01 11.09C18.52 11.61 19.36 12.46 19.79 13.88C19.12 13.59 18.49 13.55 18.04 13.52C17.82 13.51 17.6 13.49 17.5 13.46L17.44 13.43C15.94 12.89 15.72 12.4 15.72 12.15C15.72 11.77 15.41 11.47 15.05 11.47C14.68 11.47 14.38 11.77 14.38 12.15C14.38 12.74 12.7 13.8 12.01 14.06C11.93 14.09 11.85 14.11 11.77 14.14C11.38 14.27 10.92 14.42 10.38 14.78C10.84 13.35 11.66 12.37 12.16 11.76C12.4 11.47 12.56 11.28 12.65 11.08C12.75 10.83 12.71 10.55 12.54 10.35C12.41 10.2 12.23 10.11 12.04 10.11C11.98 10.11 11.92 10.12 11.86 10.14C9.82 10.74 8.08 10.45 6.7 9.28L6.7 9.28C6.28 8.93 5.94 8.53 5.66 8.14C6.28 8.23 7.04 8.14 7.94 7.73ZM15.27 33.63C7.58 33.63 1.32 27.79 1.32 20.61C1.32 16.75 3.12 13.15 6.27 10.66C7.21 11.33 8.3 11.71 9.43 11.79C9.76 11.81 10.1 11.81 10.44 11.78C9.69 12.83 8.82 14.42 8.71 16.59C8.7 16.89 8.87 17.16 9.13 17.26C9.21 17.3 9.29 17.31 9.37 17.31C9.48 17.31 9.59 17.29 9.68 17.23C9.7 17.22 9.72 17.21 9.74 17.2C9.79 17.16 9.84 17.12 9.88 17.07C10.87 15.88 11.56 15.65 12.18 15.44C12.27 15.41 12.37 15.38 12.46 15.34C12.48 15.34 14.1 14.67 15.04 13.62C15.68 14.24 16.59 14.58 16.99 14.72L17.05 14.74C17.33 14.85 17.63 14.86 17.95 14.89C18.67 14.93 19.48 14.98 20.22 15.87C20.4 16.09 20.7 16.17 20.97 16.06C21.23 15.96 21.4 15.69 21.38 15.4C21.29 13.41 20.55 12.05 19.85 11.14C20.9 11.21 21.97 11.08 22.95 10.66C23.22 10.55 23.48 10.42 23.73 10.26C25.34 11.42 26.69 12.9 27.63 14.58C28.66 16.42 29.21 18.51 29.21 20.61C29.21 27.79 22.96 33.63 15.27 33.63Z" fill="#000000" fill-opacity="1.000000" fill-rule="nonzero"/>
	<path id="Vector" d="M15.27 32.25C8.46 32.25 2.92 27.03 2.92 20.61C2.92 20.23 3.21 19.93 3.58 19.93C3.95 19.93 4.25 20.23 4.25 20.61C4.25 26.28 9.19 30.89 15.27 30.89C15.64 30.89 15.93 31.19 15.93 31.57C15.93 31.95 15.64 32.25 15.27 32.25Z" fill="#000000" fill-opacity="1.000000" fill-rule="nonzero"/>
	<path id="Vector" d="M18.01 31.95C17.65 31.95 17.35 31.65 17.35 31.27C17.35 30.89 17.65 30.59 18.01 30.59L18.01 30.59C18.38 30.59 18.68 30.89 18.68 31.27C18.68 31.65 18.38 31.95 18.01 31.95Z" fill="#000000" fill-opacity="1.000000" fill-rule="nonzero"/>
</svg>
