<svg width="10.425781" height="10.000000" viewBox="0 0 10.4258 10" fill="none" xmlns="http://www.w3.org/2000/svg" xmlns:xlink="http://www.w3.org/1999/xlink">
	<desc>
			Created with Pixso.
	</desc>
	<defs/>
	<path id="phone" d="M6.40625 0C6.25879 0 6.13867 0.112793 6.13867 0.251465C6.13867 0.390625 6.25879 0.503418 6.40625 0.503418C8.32715 0.503418 9.88965 1.97021 9.88965 3.77393C9.88965 3.91309 10.0098 4.02539 10.1572 4.02539C10.3057 4.02539 10.4258 3.91309 10.4258 3.77393C10.4258 1.69287 8.62305 0 6.40625 0ZM8.43066 6.11475L10.1582 7.77246C10.5156 8.11523 10.5156 8.67285 10.1582 9.01562L9.72656 9.42969C9.0166 10.1104 7.52637 10.0669 6.53418 9.8833C5.63184 9.71582 3.89258 9.21924 2.38477 7.77246C0.874023 6.32227 0.332031 4.64014 0.144531 3.76611C-0.151367 2.39502 0.0136719 1.20947 0.574219 0.671387L1.00586 0.256836C1.36328 -0.0854492 1.94434 -0.0859375 2.30176 0.256836L4.0293 1.91455C4.38672 2.25732 4.38672 2.81494 4.0293 3.15771L3.59766 3.57227C3.24023 3.91504 3.24023 4.47266 3.59766 4.81543L5.40625 6.52783C5.76465 6.87207 6.3457 6.87207 6.70312 6.5293L7.13477 6.11475C7.49316 5.771 8.07227 5.77148 8.43066 6.11475ZM1.43848 0.670898C1.55762 0.557129 1.75098 0.556641 1.87012 0.670898L3.59766 2.32861C3.7168 2.44287 3.7168 2.62891 3.59766 2.74316L3.38281 2.94922L1.22363 0.877441L1.43848 0.670898ZM6.13867 1.55127C6.13867 1.42627 6.24805 1.32471 6.38281 1.32471C7.86523 1.32471 9.07129 2.44238 9.07129 3.81641C9.07129 3.94141 8.96191 4.04297 8.82715 4.04297C8.69238 4.04297 8.58301 3.94141 8.58301 3.81641C8.58301 2.69238 7.5957 1.77783 6.38281 1.77783C6.24805 1.77783 6.13867 1.67627 6.13867 1.55127ZM2.81641 7.3584C4.20898 8.69482 5.81641 9.15381 6.64941 9.30811C7.37305 9.44189 8.3877 9.50244 9.04102 9.18506L6.89844 7.12939C6.30566 7.50684 5.49707 7.44434 4.97559 6.94385L3.16699 5.23145C2.64355 4.72949 2.5791 3.95361 2.97266 3.38477L0.832031 1.33105C0.607422 1.76953 0.511719 2.57568 0.742188 3.64795C0.916992 4.45752 1.41797 6.01611 2.81641 7.3584ZM6.33594 2.64893C6.22754 2.64893 6.13867 2.729 6.13867 2.82715C6.13867 2.92578 6.22754 3.00537 6.33594 3.00537C6.88086 3.00537 7.32324 3.40527 7.32324 3.89648C7.32324 3.99512 7.41211 4.0752 7.52051 4.0752C7.62988 4.0752 7.71777 3.99512 7.71777 3.89648C7.71777 3.2085 7.09863 2.64893 6.33594 2.64893ZM6.13867 4.02051C6.13867 3.99414 6.16406 3.97314 6.19531 3.97314C6.28809 3.97314 6.36426 4.03662 6.36426 4.11523C6.36426 4.14111 6.33887 4.1626 6.30762 4.1626C6.27734 4.1626 6.25195 4.14111 6.25195 4.11523C6.25195 4.08887 6.22656 4.06787 6.19531 4.06787C6.16406 4.06787 6.13867 4.04639 6.13867 4.02051ZM9.72656 8.60107L9.51172 8.80762L7.35254 6.73535L7.56738 6.5293C7.68652 6.41455 7.87988 6.41455 7.99902 6.5293L9.72656 8.18701C9.8457 8.30127 9.8457 8.48682 9.72656 8.60107Z" clip-rule="evenodd" fill="#FFFFFF" fill-opacity="1.000000" fill-rule="evenodd"/>
</svg>
